<?xml version="1.0" encoding="UTF-8"?>
<svg version="1.1" xmlns="http://www.w3.org/2000/svg" width="512" height="512">
<path d="M0 0 C57.83111176 -1.19747734 117.97154423 18.15545448 162.70703125 55.12109375 C163.49400391 55.76594727 163.49400391 55.76594727 164.296875 56.42382812 C175.43985872 65.57603897 186.45910593 75.02358337 195.70703125 86.12109375 C196.60433447 87.13627327 197.50432284 88.1490826 198.40625 89.16015625 C205.94426001 97.67065427 212.50519431 106.59933287 218.70703125 116.12109375 C219.73570312 117.68730469 219.73570312 117.68730469 220.78515625 119.28515625 C237.97079462 146.32109954 249.56647324 176.14423608 256.01953125 207.49609375 C256.16688721 208.20660889 256.31424316 208.91712402 256.46606445 209.64916992 C259.43339507 225.1915853 260.11588429 240.77675239 260.08203125 256.55859375 C260.08121552 257.99901535 260.08121552 257.99901535 260.0803833 259.46853638 C259.97388889 300.53235418 249.9352815 340.42936782 225.70703125 374.12109375 C224.56041016 375.71630859 224.56041016 375.71630859 223.390625 377.34375 C203.35966962 404.34966518 176.05261056 424.17214704 145.70703125 438.12109375 C145.000625 438.44674316 144.29421875 438.77239258 143.56640625 439.10791016 C115.81589078 451.72233995 85.89868501 459.27543837 55.70703125 463.12109375 C54.59521484 463.26756348 54.59521484 463.26756348 53.4609375 463.41699219 C-24.85810093 473.35748553 -116.30525814 462.54542927 -180.29296875 413.12109375 C-218.06000881 383.6995364 -242.89076861 342.62479029 -250.29296875 295.12109375 C-250.46884521 294.0112915 -250.64472168 292.90148926 -250.82592773 291.75805664 C-252.45181846 280.35224159 -252.65021434 269.06679088 -252.60546875 257.55859375 C-252.60364594 256.58620758 -252.60182312 255.61382141 -252.59994507 254.61196899 C-252.55458654 240.24188569 -252.05277668 226.25997075 -249.29296875 212.12109375 C-249.05151123 210.7755542 -249.05151123 210.7755542 -248.80517578 209.40283203 C-244.57025572 185.9988982 -236.82404559 163.42644877 -226.29296875 142.12109375 C-225.92703613 141.37682129 -225.56110352 140.63254883 -225.18408203 139.86572266 C-219.98877564 129.41317906 -214.06084073 119.62642207 -207.29296875 110.12109375 C-206.82487793 109.46222168 -206.35678711 108.80334961 -205.87451172 108.12451172 C-199.76076521 99.5906128 -193.28291843 91.62454754 -186.04296875 84.0234375 C-183.63670586 81.48387311 -181.32870078 78.89343573 -179.04296875 76.24609375 C-176.10251778 72.9275848 -173.03979839 69.96284113 -169.6484375 67.109375 C-167.85447814 65.595071 -166.09161089 64.04384968 -164.34375 62.4765625 C-118.98730011 22.02972684 -60.06569734 2.20882161 0 0 Z " fill="#EC5D71" transform="translate(252.29296875,22.87890625)"/>
<path d="M0 0 C57.83111176 -1.19747734 117.97154423 18.15545448 162.70703125 55.12109375 C163.49400391 55.76594727 163.49400391 55.76594727 164.296875 56.42382812 C175.43985872 65.57603897 186.45910593 75.02358337 195.70703125 86.12109375 C196.60433447 87.13627327 197.50432284 88.1490826 198.40625 89.16015625 C205.94426001 97.67065427 212.50519431 106.59933287 218.70703125 116.12109375 C219.73570312 117.68730469 219.73570312 117.68730469 220.78515625 119.28515625 C237.97079462 146.32109954 249.56647324 176.14423608 256.01953125 207.49609375 C256.16688721 208.20660889 256.31424316 208.91712402 256.46606445 209.64916992 C259.43339507 225.1915853 260.11588429 240.77675239 260.08203125 256.55859375 C260.08121552 257.99901535 260.08121552 257.99901535 260.0803833 259.46853638 C259.97388889 300.53235418 249.9352815 340.42936782 225.70703125 374.12109375 C224.56041016 375.71630859 224.56041016 375.71630859 223.390625 377.34375 C203.35966962 404.34966518 176.05261056 424.17214704 145.70703125 438.12109375 C145.000625 438.44674316 144.29421875 438.77239258 143.56640625 439.10791016 C115.81589078 451.72233995 85.89868501 459.27543837 55.70703125 463.12109375 C54.59521484 463.26756348 54.59521484 463.26756348 53.4609375 463.41699219 C-24.85810093 473.35748553 -116.30525814 462.54542927 -180.29296875 413.12109375 C-218.06000881 383.6995364 -242.89076861 342.62479029 -250.29296875 295.12109375 C-250.46884521 294.0112915 -250.64472168 292.90148926 -250.82592773 291.75805664 C-252.45181846 280.35224159 -252.65021434 269.06679088 -252.60546875 257.55859375 C-252.60364594 256.58620758 -252.60182312 255.61382141 -252.59994507 254.61196899 C-252.55458654 240.24188569 -252.05277668 226.25997075 -249.29296875 212.12109375 C-249.05151123 210.7755542 -249.05151123 210.7755542 -248.80517578 209.40283203 C-244.57025572 185.9988982 -236.82404559 163.42644877 -226.29296875 142.12109375 C-225.92703613 141.37682129 -225.56110352 140.63254883 -225.18408203 139.86572266 C-219.98877564 129.41317906 -214.06084073 119.62642207 -207.29296875 110.12109375 C-206.82487793 109.46222168 -206.35678711 108.80334961 -205.87451172 108.12451172 C-199.76076521 99.5906128 -193.28291843 91.62454754 -186.04296875 84.0234375 C-183.63670586 81.48387311 -181.32870078 78.89343573 -179.04296875 76.24609375 C-176.10251778 72.9275848 -173.03979839 69.96284113 -169.6484375 67.109375 C-167.85447814 65.595071 -166.09161089 64.04384968 -164.34375 62.4765625 C-118.98730011 22.02972684 -60.06569734 2.20882161 0 0 Z M5.640625 41.875 C4.61130859 42.47441406 3.58199219 43.07382813 2.52148438 43.69140625 C1.40708984 44.34882812 0.29269531 45.00625 -0.85546875 45.68359375 C-2.02629222 46.3678732 -3.19752304 47.05145611 -4.36914062 47.734375 C-6.80514035 49.1550128 -9.23935151 50.57864601 -11.67236328 52.00439453 C-17.19629182 55.23811574 -22.74589117 58.42730897 -28.29296875 61.62109375 C-30.44540981 62.86311262 -32.59775307 64.10530101 -34.75 65.34765625 C-39.22452044 67.92934344 -43.70137732 70.50692389 -48.1796875 73.08203125 C-61.54562527 80.75065476 -61.54562527 80.75065476 -74.79296875 88.62109375 C-84.71346966 94.63369256 -94.801289 100.36263347 -104.85693359 106.14501953 C-130.08880826 120.65594702 -155.27372662 135.24576035 -180.29296875 150.12109375 C-181.15065605 150.52227197 -182.00834335 150.92345018 -182.89202118 151.33678532 C-185.53974885 152.90481158 -185.53974885 152.90481158 -185.91658783 155.75247097 C-185.91587532 156.81814832 -185.91516281 157.88382566 -185.91442871 158.98179626 C-185.92563751 160.20545898 -185.93684631 161.4291217 -185.94839478 162.68986511 C-185.93548259 164.04837506 -185.92206842 165.40688031 -185.90820312 166.76538086 C-185.91170386 168.1946173 -185.91736191 169.62384985 -185.92501831 171.05307007 C-185.9392948 174.94019533 -185.92217033 178.82661543 -185.89873314 182.71367335 C-185.8786283 186.78799984 -185.88450411 190.86229687 -185.88684082 194.93666077 C-185.88678719 201.789028 -185.8670083 208.64112011 -185.83496094 215.4934082 C-185.79819777 223.39188569 -185.78926662 231.29000093 -185.79625845 239.1885528 C-185.80259135 246.80196031 -185.79174935 254.41524475 -185.77229309 262.0286274 C-185.76416255 265.25917898 -185.76140156 268.48966726 -185.76298523 271.7202282 C-185.76387206 275.5395176 -185.74943623 279.35846935 -185.7237587 283.17766953 C-185.71666619 284.57070209 -185.71447939 285.96377077 -185.71787643 287.35681725 C-185.75426011 305.81344113 -180.82846345 321.35990517 -167.7890625 334.8359375 C-161.80405406 340.31517058 -155.97562571 343.68338132 -147.6640625 343.515625 C-136.02189488 341.57846037 -123.02132248 331.60666291 -113.29296875 325.12109375 C-113.32777344 326.43722656 -113.36257812 327.75335938 -113.3984375 329.109375 C-113.7548416 348.02039244 -110.01782341 359.91481635 -97.7421875 374.62890625 C-94.06977537 378.36574666 -89.96127515 380.80900249 -85.29296875 383.12109375 C-84.63296875 383.45109375 -83.97296875 383.78109375 -83.29296875 384.12109375 C-73.83154517 385.59201866 -67.79797156 382.29587556 -59.98046875 377.30859375 C-57.9017611 376.03007955 -55.8223558 374.75269881 -53.7421875 373.4765625 C-52.38613403 372.62034302 -52.38613403 372.62034302 -51.00268555 371.74682617 C-48.16592451 370.04487179 -45.26832768 368.56466044 -42.29296875 367.12109375 C-42.339375 368.19746094 -42.38578125 369.27382813 -42.43359375 370.3828125 C-42.72164887 380.01825624 -41.94996569 388.05478883 -38.29296875 397.12109375 C-38.00421875 397.85585938 -37.71546875 398.590625 -37.41796875 399.34765625 C-32.90419152 409.46335343 -24.48108462 418.56865686 -14.91796875 424.05859375 C-9.6763271 425.59493699 -4.46452823 426.63166416 0.64770508 424.19677734 C3.0310115 422.88523017 5.37017852 421.51370821 7.70703125 420.12109375 C9.44505645 419.11283974 11.18334807 418.10504488 12.921875 417.09765625 C14.82984875 415.98118904 16.73737946 414.86396445 18.64453125 413.74609375 C27.27556104 408.69938533 35.91990218 403.6767402 44.58203125 398.68359375 C45.65437012 398.06540771 46.72670898 397.44722168 47.83154297 396.81030273 C52.25743834 394.25964674 56.6840088 391.71016449 61.11083984 389.16113281 C77.74895167 379.58228854 77.74895167 379.58228854 94.31884766 369.88623047 C109.82054698 360.73921859 125.39359368 351.7151724 140.98950195 342.72998047 C149.2648782 337.95973822 157.52954316 333.17145112 165.7668457 328.33569336 C170.94059253 325.3007899 176.13405996 322.31043029 181.3671875 319.37890625 C182.45950684 318.76023682 183.55182617 318.14156738 184.67724609 317.50415039 C186.76287801 316.32395938 188.85531869 315.15568941 190.95556641 314.00170898 C197.6838118 310.17071437 202.17453767 306.7185745 204.70703125 299.12109375 C204.79950899 296.81309369 204.82895836 294.5024326 204.82728577 292.19258118 C204.82814019 291.48356334 204.82899462 290.77454551 204.82987493 290.04404229 C204.8315252 287.66255542 204.82601576 285.28113861 204.82055664 282.8996582 C204.82027465 281.19480389 204.82043274 279.48994946 204.82099915 277.78509521 C204.82128664 273.15111254 204.81539766 268.51715563 204.80842519 263.88317895 C204.80218366 259.04249721 204.80158722 254.20181491 204.80039978 249.36112976 C204.79728883 240.19203002 204.78907861 231.02294218 204.77905029 221.85384768 C204.76788184 211.41625159 204.76237685 200.97865494 204.75735486 190.54105437 C204.74689581 169.06772752 204.72930092 147.59441138 204.70703125 126.12109375 C203.11590373 125.26280241 201.5172417 124.41846743 199.91546631 123.58021545 C199.02603207 123.10856492 198.13659782 122.63691439 197.22021103 122.15097141 C194.62712233 120.81919834 194.62712233 120.81919834 191.37207031 121.77514648 C190.41526367 122.36239502 189.45845703 122.94964355 188.47265625 123.5546875 C187.40402344 124.18439453 186.33539063 124.81410156 185.234375 125.46289062 C184.15285156 126.15447266 183.07132812 126.84605469 181.95703125 127.55859375 C180.86003906 128.21537109 179.76304687 128.87214844 178.6328125 129.54882812 C173.56826665 132.60290275 168.58942947 135.78365021 163.70703125 139.12109375 C163.79984375 138.24066406 163.89265625 137.36023438 163.98828125 136.453125 C164.62570508 129.87815248 164.62570508 129.87815248 162.13671875 124.07421875 C159.89483879 122.55690076 158.37788865 121.62578754 155.70703125 121.12109375 C150.52046152 122.45662353 146.33405095 124.95414355 141.83203125 127.74609375 C141.14367187 128.16632813 140.4553125 128.5865625 139.74609375 129.01953125 C138.06311467 130.04801847 136.38460593 131.08381475 134.70703125 132.12109375 C134.71004745 131.54115662 134.71306366 130.96121948 134.71617126 130.3637085 C134.74072961 124.32863298 134.71665769 118.29514225 134.66430664 112.26025391 C134.65116506 110.00801351 134.65043427 107.75566517 134.66235352 105.50341797 C134.6773372 102.26551571 134.64772996 99.03062409 134.609375 95.79296875 C134.63075783 94.28183502 134.63075783 94.28183502 134.65257263 92.74017334 C134.67124592 87.74249093 134.67124592 87.74249093 132.29959106 83.57287598 C128.57422876 81.22341561 125.09822368 80.48095119 120.70703125 81.12109375 C118.02654376 82.22148956 118.02654376 82.22148956 115.484375 83.859375 C114.53369141 84.43236328 113.58300781 85.00535156 112.60351562 85.59570312 C111.62705078 86.20220703 110.65058594 86.80871094 109.64453125 87.43359375 C108.66419922 88.02849609 107.68386719 88.62339844 106.67382812 89.23632812 C104.84527436 90.34736385 103.01993066 91.46371337 101.19897461 92.5871582 C98.71278764 94.11755036 96.21304286 95.62343144 93.70703125 97.12109375 C93.72765625 96.39664063 93.74828125 95.6721875 93.76953125 94.92578125 C93.69887812 89.06161853 93.69887812 89.06161853 91.03515625 84.01953125 C88.92677574 82.34709408 87.23047674 81.06962291 84.70703125 80.12109375 C81.01436558 80.57737908 78.41789048 81.66177898 75.28125 83.625 C74.48525391 84.11806641 73.68925781 84.61113281 72.86914062 85.11914062 C72.05251953 85.63541016 71.23589844 86.15167969 70.39453125 86.68359375 C69.55857422 87.20373047 68.72261719 87.72386719 67.86132812 88.25976562 C65.8055892 89.5401973 63.75445902 90.82742955 61.70703125 92.12109375 C61.73367859 91.23572685 61.73367859 91.23572685 61.76086426 90.33247375 C61.93796288 84.18469017 62.05854998 78.03763129 62.14648438 71.88793945 C62.1866973 69.59369475 62.241278 67.29965483 62.31054688 65.00610352 C62.40769377 61.70668073 62.45297928 58.40996762 62.48828125 55.109375 C62.52957153 54.08524002 62.57086182 53.06110504 62.61340332 52.00593567 C62.69439208 46.67215697 62.69439208 46.67215697 60.01342773 42.29501343 C56.13930882 39.64353002 56.13930882 39.64353002 51.60557556 39.42723083 C48.96133696 40.3936234 46.66626627 41.74531853 44.2421875 43.17578125 C43.19482422 43.79066406 42.14746094 44.40554687 41.06835938 45.0390625 C39.97974609 45.68488281 38.89113281 46.33070312 37.76953125 46.99609375 C36.68478516 47.63417969 35.60003906 48.27226563 34.48242188 48.9296875 C29.87867673 51.64043603 25.28596497 54.3686383 20.70703125 57.12109375 C20.82884766 55.80044922 20.82884766 55.80044922 20.953125 54.453125 C21.57004666 47.94868014 21.57004666 47.94868014 19.25390625 42.14453125 C14.07608247 38.42433013 11.10664871 38.66696639 5.640625 41.875 Z " fill="#030104" transform="translate(252.29296875,22.87890625)"/>
<path d="M0 0 C1.175625 0.7115625 1.175625 0.7115625 2.375 1.4375 C3.24253906 1.82421875 4.11007812 2.2109375 5.00390625 2.609375 C7.375 4.4375 7.375 4.4375 7.86328125 7.57421875 C7.80527344 8.74597656 7.74726563 9.91773438 7.6875 11.125 C7.64238281 12.30449219 7.59726562 13.48398438 7.55078125 14.69921875 C7.49277344 15.60285156 7.43476563 16.50648438 7.375 17.4375 C9.15304934 16.38703017 10.93103498 15.3364524 12.70874023 14.28540039 C14.24669794 13.38065191 15.78793909 12.48146365 17.33227539 11.58764648 C21.05471823 9.42866803 24.71533178 7.24413813 28.26953125 4.81640625 C28.87007324 4.42453125 29.47061523 4.03265625 30.08935547 3.62890625 C31.72073266 2.56012074 33.32804442 1.45486236 34.93359375 0.34765625 C39.09904981 -0.75399104 39.90143066 -0.09047039 43.59008789 1.88061523 C44.48715958 2.35289047 45.38423126 2.82516571 46.30848694 3.31175232 C46.99043625 3.68324905 47.67238556 4.05474579 48.375 4.4375 C48.46848307 26.85569215 48.53899874 49.27385212 48.58224869 71.69219971 C48.60286506 82.10166951 48.63096805 92.51101814 48.67675781 102.92041016 C48.7166538 111.99430454 48.74243954 121.06811114 48.75135398 130.1420908 C48.75656403 134.94575937 48.76879038 139.74917687 48.79792023 144.55276489 C48.82513293 149.07699944 48.83343317 153.60088021 48.82743073 158.12518883 C48.82852835 159.7827821 48.83644738 161.44038759 48.8518219 163.09790993 C48.98907878 178.66309864 48.98907878 178.66309864 44.375 185.4375 C38.24815119 191.61356045 29.11895806 195.43043388 21.5234375 199.5859375 C15.91671745 202.66843876 10.39459758 205.8897311 4.875 209.125 C-3.71225032 214.15474414 -12.3145951 219.15659746 -20.9375 224.125 C-22.02861084 224.75390137 -23.11972168 225.38280273 -24.24389648 226.03076172 C-26.37413959 227.25854442 -28.50442797 228.48624856 -30.63476562 229.71386719 C-40.67447524 235.50096303 -50.70813567 241.29683617 -60.6875 247.1875 C-67.82712192 251.40134025 -75.00353474 255.54977633 -82.1875 259.6875 C-93.67780073 266.30590655 -105.13877507 272.97305101 -116.58691406 279.6640625 C-119.78252871 281.52945504 -122.98080972 283.39020931 -126.1796875 285.25 C-127.25847168 285.87769287 -128.33725586 286.50538574 -129.44873047 287.15209961 C-131.50187984 288.34658751 -133.55555493 289.54017245 -135.60986328 290.73266602 C-141.00904171 293.87604886 -146.35158621 297.08738651 -151.625 300.4375 C-156.90998208 303.76933653 -161.51890847 304.37412761 -167.625 303.4375 C-178.92861945 299.74930997 -186.83861264 290.48976417 -192.625 280.4375 C-196.43799655 271.98387974 -198.66501956 264.24810915 -199.15771484 255.00390625 C-199.21972108 253.84671837 -199.21972108 253.84671837 -199.28297997 252.66615295 C-200.26033839 232.55212417 -200.15872233 212.37122619 -200.19678688 192.23641968 C-200.21304033 184.54710148 -200.26199003 176.86071074 -200.38964844 169.17236328 C-200.50188256 162.41088388 -200.55403377 155.65206631 -200.5342077 148.88963604 C-200.52570435 145.32592412 -200.54578668 141.76793543 -200.63817215 138.20529175 C-201.16635714 116.7150867 -201.16635714 116.7150867 -196.9682827 111.30083275 C-192.99153028 107.88537253 -188.62577767 105.91196156 -183.70714092 104.20882988 C-180.61700341 103.06408729 -177.9939928 101.43401506 -175.19140625 99.70703125 C-173.19048818 98.55402082 -171.18918199 97.40168371 -169.1875 96.25 C-168.10202881 95.62416016 -167.01655762 94.99832031 -165.89819336 94.35351562 C-160.71042358 91.36287946 -155.52040528 88.37622811 -150.32557678 85.39787292 C-148.57391854 84.39326747 -146.8228747 83.38759951 -145.07202148 82.3815918 C-142.88787063 81.12700093 -140.7025685 79.87441122 -138.51586914 78.62426758 C-133.62269521 75.81162488 -128.79975158 72.93781986 -124.05859375 69.875 C-119.60004262 67.00490271 -115.04416337 64.42831378 -110.37158203 61.92529297 C-105.70311865 59.39643823 -101.13947356 56.68982949 -96.5625 54 C-87.789896 48.86232312 -78.99826769 43.75944767 -70.1875 38.6875 C-62.21165329 34.09461575 -54.25440136 29.47358542 -46.33032227 24.79199219 C-40.99889564 21.64583631 -35.62713033 18.57628396 -30.24609375 15.515625 C-25.32663939 12.70450822 -20.45008982 9.82005538 -15.57226562 6.9375 C-14.23651335 6.14859933 -12.8993193 5.36213366 -11.56054688 4.57836914 C-10.25300362 3.80766409 -8.95230337 3.02524785 -7.65820312 2.23217773 C-2.91058314 -0.62369639 -2.91058314 -0.62369639 0 0 Z " fill="#5792FA" transform="translate(408.625,144.5625)"/>
<path d="M0 0 C0.598125 0.28230469 1.19625 0.56460938 1.8125 0.85546875 C2.74642578 1.25378906 2.74642578 1.25378906 3.69921875 1.66015625 C5.80018777 2.90888838 7.21271806 3.99004037 8.8125 5.85546875 C9.35473633 8.56689453 9.35473633 8.56689453 9.51953125 11.55078125 C9.61391479 13.03989014 9.61391479 13.03989014 9.71020508 14.55908203 C9.7439624 15.31688965 9.77771973 16.07469727 9.8125 16.85546875 C13.7508875 14.56532474 17.6880562 12.27309357 21.625 9.98046875 C22.74455078 9.32949219 23.86410156 8.67851563 25.01757812 8.0078125 C26.09072266 7.38261719 27.16386719 6.75742188 28.26953125 6.11328125 C29.25928955 5.53723145 30.24904785 4.96118164 31.26879883 4.36767578 C33.1491589 3.24981895 34.99235164 2.06890099 36.8125 0.85546875 C42.40540662 0.09279966 45.17989618 2.07810201 49.8125 4.85546875 C49.99010498 11.59945264 50.11262074 18.34283314 50.19702148 25.08862305 C50.23220672 27.3827976 50.27996347 29.67681538 50.34057617 31.97045898 C50.42557661 35.26976166 50.46520822 38.56698912 50.49609375 41.8671875 C50.53222275 42.89132248 50.56835175 43.91545746 50.60557556 44.97062683 C50.60939394 51.90817548 50.60939394 51.90817548 48.39198303 54.54408264 C46.59187993 55.86458891 44.81671274 56.87713967 42.8125 57.85546875 C41.92119385 58.3750415 41.0298877 58.89461426 40.11157227 59.42993164 C38.85171509 60.09109985 38.85171509 60.09109985 37.56640625 60.765625 C31.87709668 63.80554394 26.31075855 67.02503482 20.75 70.29296875 C12.12208625 75.34530194 3.47721609 80.36651561 -5.1875 85.35546875 C-17.54786677 92.47608483 -29.87217509 99.6573036 -42.1875 106.85546875 C-57.7041856 115.92479225 -73.24796365 124.94512786 -88.82177734 133.91601562 C-92.3364325 135.94128913 -95.85005469 137.96834354 -99.36328125 139.99609375 C-99.95343018 140.33669327 -100.5435791 140.67729279 -101.15161133 141.0282135 C-103.98442756 142.66316782 -106.81719 144.2982153 -109.64990234 145.93334961 C-111.17478271 146.81325562 -111.17478271 146.81325562 -112.73046875 147.7109375 C-113.61758545 148.22293701 -114.50470215 148.73493652 -115.41870117 149.26245117 C-118.1875 150.85546875 -118.1875 150.85546875 -121.81407166 152.18101501 C-123.74562296 153.18615239 -123.74562296 153.18615239 -125.1875 154.85546875 C-126.24044217 158.96256468 -126.03631659 163.02294107 -125.93115234 167.23974609 C-125.92550213 169.18716862 -125.9198576 171.13459117 -125.91442704 173.08201432 C-125.90191708 175.17360166 -125.87218618 177.26432846 -125.83771896 179.3556633 C-125.76721817 183.7180021 -125.75215271 188.07945135 -125.7460022 192.44229126 C-125.72214622 203.27864991 -125.62645859 214.11424385 -125.51397705 224.95001221 C-125.42729236 233.370246 -125.36097277 241.78957267 -125.35636294 250.210302 C-125.35168317 254.54525667 -125.30485068 258.87706012 -125.22593284 263.21126914 C-125.17655165 266.54505027 -125.18552049 269.87826563 -125.18505859 273.21240234 C-125.15105453 274.40949326 -125.11705048 275.60658417 -125.08201599 276.83995056 C-125.1587791 284.78763071 -125.1587791 284.78763071 -128.16100883 287.90402031 C-130.44521529 289.44549522 -132.69938871 290.67928673 -135.1875 291.85546875 C-136.10321777 292.44376465 -137.01893555 293.03206055 -137.96240234 293.63818359 C-140.48094055 295.1946434 -143.0188161 296.71548054 -145.5625 298.23046875 C-146.86574219 299.04837891 -146.86574219 299.04837891 -148.1953125 299.8828125 C-154.50650056 303.60790723 -159.85938558 305.07491948 -167.1875 303.85546875 C-180.05347828 298.58918286 -188.19780216 287.56582568 -194.21484375 275.40234375 C-197.40831579 267.04032058 -197.53700979 259.07845523 -197.62084961 250.21289062 C-197.64159567 248.73701578 -197.66300128 247.26115009 -197.68501282 245.78529358 C-197.75253222 240.96505806 -197.79836387 236.14474041 -197.83984375 231.32421875 C-197.84708694 230.50205557 -197.85433012 229.67989239 -197.8617928 228.83281517 C-197.92892682 221.07163522 -197.98702682 213.31042834 -198.02532101 205.54904938 C-198.0748581 195.64569715 -198.1677949 185.74484022 -198.31923288 175.84250784 C-198.42232361 168.86395553 -198.47549557 161.88607845 -198.4919911 154.90679026 C-198.50318913 150.74374437 -198.53621625 146.58358317 -198.62312126 142.42137146 C-198.70383645 138.50651508 -198.72251301 134.59614221 -198.69448662 130.68060112 C-198.69486831 129.24859076 -198.71733531 127.81638076 -198.76408768 126.38513374 C-198.90228601 121.91548836 -198.78081498 118.05609497 -197.1875 113.85546875 C-193.21874468 110.20941256 -189.07529591 108.14067525 -184.1875 105.85546875 C-182.13919131 104.68361255 -180.09962257 103.49617021 -178.07421875 102.28515625 C-176.00880725 101.0985273 -173.94237119 99.91368018 -171.875 98.73046875 C-169.58956902 97.41714463 -167.304419 96.10333148 -165.01953125 94.7890625 C-163.30757568 93.80462158 -163.30757568 93.80462158 -161.56103516 92.80029297 C-156.38428904 89.81592768 -151.22221102 86.80666553 -146.0625 83.79296875 C-145.08112061 83.21981934 -144.09974121 82.64666992 -143.08862305 82.05615234 C-141.1107412 80.90072223 -139.13295768 79.74512379 -137.15527344 78.58935547 C-131.16641689 75.09043648 -125.17418651 71.59729811 -119.18261719 68.10302734 C-114.206594 65.20075171 -109.23133865 62.29717795 -104.2578125 59.390625 C-88.46755289 50.16557039 -72.63165994 41.02099134 -56.78369141 31.89550781 C-40.86481145 22.73455309 -40.86481145 22.73455309 -25 13.48046875 C-24.33709961 13.0922998 -23.67419922 12.70413086 -22.99121094 12.30419922 C-19.61677392 10.3198817 -16.27539447 8.29407142 -12.9609375 6.2109375 C-12.27410889 5.78409668 -11.58728027 5.35725586 -10.87963867 4.91748047 C-9.58136562 4.10825364 -8.28935492 3.28885551 -7.00512695 2.45751953 C-2.75419741 -0.18197376 -2.75419741 -0.18197376 0 0 Z " fill="#FCBA61" transform="translate(336.1875,103.14453125)"/>
<path d="M0 0 C-1 3 -1 3 -3.46337891 4.40893555 C-4.49897949 4.917229 -5.53458008 5.42552246 -6.6015625 5.94921875 C-13.6891342 9.94843932 -16.69396842 14.71838783 -20.375 21.8125 C-21.50743356 23.88171785 -22.64024234 25.95073039 -23.7734375 28.01953125 C-25.34911184 30.92850442 -26.91629465 33.83741736 -28.43066406 36.77880859 C-31.9395294 43.21896315 -35.6456931 46.45075854 -42 50 C-42.90347168 50.5347998 -43.80694336 51.06959961 -44.73779297 51.62060547 C-47.7891512 53.42054387 -50.86047383 55.18183032 -53.9375 56.9375 C-55.65786602 57.92466387 -57.37822936 58.91183246 -59.09843445 59.89927673 C-60.87723995 60.91982989 -62.65680269 61.93905171 -64.43652344 62.95800781 C-70.15177356 66.2313903 -75.85723106 69.52175764 -81.5625 72.8125 C-82.6553833 73.44269043 -83.7482666 74.07288086 -84.87426758 74.72216797 C-91.47133164 78.52984248 -98.0517058 82.36393048 -104.61181641 86.23486328 C-113.61961744 91.55005236 -122.65488252 96.81803861 -131.69580078 102.07666016 C-133.99201058 103.41325989 -136.2873439 104.75126899 -138.58154297 106.09130859 C-141.59368049 107.85049974 -144.60837042 109.60524201 -147.62478638 111.35708618 C-149.35106108 112.36107727 -151.07484193 113.36935237 -152.79858398 114.37768555 C-153.84216064 114.98265869 -154.8857373 115.58763184 -155.9609375 116.2109375 C-156.88696777 116.75024902 -157.81299805 117.28956055 -158.76708984 117.84521484 C-161 119 -161 119 -163 119 C-162.99723462 119.75206789 -162.99446924 120.50413578 -162.99162006 121.27899361 C-162.9253546 139.58210124 -162.87571668 157.88518491 -162.84456348 176.18838692 C-162.82909743 185.03969761 -162.80801292 193.89092821 -162.77368164 202.7421875 C-162.74377127 210.45733375 -162.72442309 218.172422 -162.71773452 225.88762462 C-162.71382503 229.97242913 -162.70464268 234.0570677 -162.68280983 238.141819 C-162.66241876 241.98805494 -162.65617146 245.83405686 -162.66067696 249.68034172 C-162.65985292 251.09043462 -162.65390274 252.5005355 -162.64238358 253.91058159 C-162.62740032 255.8395913 -162.63284722 257.76872711 -162.63923645 259.69778442 C-162.63647107 260.77628222 -162.63370569 261.85478001 -162.63085651 262.96595955 C-163.05940214 266.48823426 -164.26049427 268.93164645 -166 272 C-173.63726709 269.4542443 -178.21197276 262.96174452 -181.8125 256 C-182.60092388 254.36053375 -183.32147614 252.687918 -184 251 C-184.24418639 250.41492298 -184.48837278 249.82984596 -184.73995876 249.22703934 C-187.30958219 242.44878221 -187.54827668 235.98620301 -187.68969727 228.79199219 C-187.74336205 226.8462455 -187.74336205 226.8462455 -187.79811096 224.8611908 C-187.91200161 220.59013552 -187.99341681 216.31880512 -188.06640625 212.046875 C-188.07889239 211.31671834 -188.09137853 210.58656168 -188.10424304 209.83427906 C-188.21904267 202.93274492 -188.31794233 196.03109083 -188.38626194 189.12893295 C-188.47463614 180.34267063 -188.63578954 171.56431978 -188.89472157 162.78138804 C-189.07128409 156.57987548 -189.16235304 150.3804992 -189.19195789 144.17656636 C-189.21193621 140.4805956 -189.2682631 136.79404367 -189.41775703 133.10085297 C-190.28106716 110.78854395 -190.28106716 110.78854395 -184.84256363 104.5088768 C-179.59251435 100.26778704 -173.8359775 97.51460626 -167.58590889 95.05295753 C-164.18021889 93.66619292 -161.20367624 91.90644047 -158.078125 89.9765625 C-156.1360939 88.85819817 -154.19339492 87.74099273 -152.25 86.625 C-151.17911133 86.00834473 -150.10822266 85.39168945 -149.00488281 84.75634766 C-144.56030289 82.19705251 -140.1140754 79.64062601 -135.66796875 77.08398438 C-124.4129148 70.61001386 -113.16718685 64.1246713 -102 57.5 C-88.62910037 49.56802786 -75.14502697 41.83368784 -61.66796875 34.08398438 C-50.16197689 27.46567296 -38.66921845 20.82970088 -27.25 14.0625 C-23.83382602 12.04083266 -20.41703826 10.02020607 -17 8 C-16.25637207 7.55946289 -15.51274414 7.11892578 -14.74658203 6.66503906 C-12.77252481 5.49890242 -10.79362479 4.34157628 -8.8125 3.1875 C-7.74644531 2.56230469 -6.68039062 1.93710938 -5.58203125 1.29296875 C-3 0 -3 0 0 0 Z " fill="#FCFDFE" transform="translate(414,162)"/>
<path d="M0 0 C0 0.66 0 1.32 0 2 C-0.77601563 2.35191406 -1.55203125 2.70382813 -2.3515625 3.06640625 C-13.94700722 8.36599495 -18.14971014 17.96043269 -23.80859375 28.93359375 C-28.70286335 38.34790845 -32.64283588 44.68616762 -42 50 C-42.89041992 50.51675293 -43.78083984 51.03350586 -44.69824219 51.56591797 C-47.57735075 53.21446388 -50.47257826 54.83038982 -53.375 56.4375 C-59.19572293 59.66302093 -64.94856699 62.92169032 -70.5390625 66.53515625 C-75.0060322 69.41763853 -79.56874033 72.00270644 -84.25341797 74.51220703 C-88.92188284 77.04106258 -93.48550622 79.74770271 -98.0625 82.4375 C-107.7631704 88.11801796 -117.48811903 93.75447584 -127.23266602 99.359375 C-132.80516031 102.56792094 -138.36574049 105.79512293 -143.90625 109.05859375 C-145.01355469 109.70957031 -146.12085938 110.36054688 -147.26171875 111.03125 C-149.38109374 112.27884348 -151.49837113 113.53000884 -153.61328125 114.78515625 C-154.55558594 115.33945313 -155.49789062 115.89375 -156.46875 116.46484375 C-157.29826172 116.955896 -158.12777344 117.44694824 -158.98242188 117.95288086 C-161 119 -161 119 -163 119 C-162.99723462 119.76421894 -162.99446924 120.52843788 -162.99162006 121.31581497 C-162.92539724 139.90195827 -162.87573746 158.48807806 -162.84456348 177.07431412 C-162.82908768 186.06244389 -162.80798457 195.05049496 -162.77368164 204.03857422 C-162.74380108 211.87162857 -162.72443018 219.70462594 -162.71773452 227.5377357 C-162.71381997 231.68619131 -162.70460552 235.83448386 -162.68280983 239.98288727 C-162.66246583 243.88657039 -162.65616193 247.7900231 -162.66067696 251.6937542 C-162.65985081 253.12726277 -162.6538726 254.56077895 -162.64238358 255.99424171 C-162.627474 257.95022651 -162.63283031 259.9063346 -162.63923645 261.86236572 C-162.63647107 262.95745579 -162.63370569 264.05254585 -162.63085651 265.18082047 C-163.04209107 268.32145302 -163.88826921 269.68967351 -166 272 C-173.28338285 269.7648878 -177.56592801 262.99106217 -181.3984375 256.70703125 C-184.34397828 250.98205162 -186.25225993 245.49974073 -186.24050903 239.00149536 C-186.24325836 237.82367996 -186.24600769 236.64586456 -186.24884033 235.43235779 C-186.24164978 234.15417679 -186.23445923 232.87599579 -186.22705078 231.55908203 C-186.22648616 230.18875639 -186.22680423 228.81843015 -186.22793579 227.44810486 C-186.2285083 223.73984734 -186.21677053 220.03171989 -186.20278788 216.32349253 C-186.19026352 212.44376699 -186.18910867 208.56403829 -186.18673706 204.68429565 C-186.1805273 197.34273678 -186.16412331 190.00123764 -186.14403808 182.65970504 C-186.12166339 174.29939481 -186.1106817 165.93908168 -186.10064721 157.57874894 C-186.07975663 140.3857981 -186.04459047 123.19290537 -186 106 C-185.22873024 105.57506256 -185.22873024 105.57506256 -184.44187927 105.14154053 C-182.08391597 103.84101822 -179.7274985 102.53771894 -177.37109375 101.234375 C-176.56232788 100.78884277 -175.75356201 100.34331055 -174.92028809 99.88427734 C-169.64283269 96.9620389 -164.53424429 93.86245433 -159.48095703 90.56591797 C-156.99153456 88.99465683 -154.46291729 87.58302772 -151.8671875 86.1953125 C-146.19221493 83.12514428 -140.62287381 79.89703691 -135.0625 76.625 C-128.32261456 72.67204437 -121.57158366 68.74155567 -114.77734375 64.8828125 C-114.17531128 64.54084839 -113.57327881 64.19888428 -112.95300293 63.84655762 C-111.73942246 63.15739086 -110.52581981 62.46826316 -109.31219482 61.7791748 C-99.93964059 56.45634939 -90.64438935 51.06416768 -81.58984375 45.2109375 C-77.81355287 42.82160918 -73.8824882 40.73368954 -69.9519043 38.61132812 C-64.89567206 35.85133038 -59.92086589 32.95136327 -54.9375 30.0625 C-53.23592853 29.07835185 -51.53435564 28.09420614 -49.83270264 27.11019897 C-48.07265763 26.09223479 -46.3129348 25.07371522 -44.55322266 24.05517578 C-41.02058843 22.01111676 -37.48527221 19.97173075 -33.94921875 17.93359375 C-33.37411057 17.60206802 -32.79900238 17.2705423 -32.20646667 16.92897034 C-29.46448814 15.34838431 -26.7223987 13.76799088 -23.98022461 12.18774414 C-22.47794312 11.32137329 -22.47794312 11.32137329 -20.9453125 10.4375 C-19.97239258 9.87804687 -18.99947266 9.31859375 -17.99707031 8.7421875 C-15.88295236 7.51325742 -13.77900206 6.26675425 -11.68261719 5.0078125 C-10.60915039 4.36585937 -9.53568359 3.72390625 -8.4296875 3.0625 C-7.46015137 2.47597656 -6.49061523 1.88945313 -5.49169922 1.28515625 C-3 0 -3 0 0 0 Z " fill="#FEFCFC" transform="translate(271,80)"/>
<path d="M0 0 C-9.42857143 8 -9.42857143 8 -14 8 C-14.26570801 8.70648682 -14.53141602 9.41297363 -14.80517578 10.14086914 C-16.06045888 13.14467388 -17.5264304 15.90605463 -19.1171875 18.74609375 C-19.72433594 19.83083984 -20.33148438 20.91558594 -20.95703125 22.03320312 C-21.58996094 23.15662109 -22.22289062 24.28003906 -22.875 25.4375 C-23.50019531 26.55705078 -24.12539063 27.67660156 -24.76953125 28.83007812 C-33.3472473 44.10856813 -33.3472473 44.10856813 -39.1640625 47.33984375 C-40.19088135 47.92032471 -41.2177002 48.50080566 -42.27563477 49.09887695 C-43.93357056 50.00899536 -43.93357056 50.00899536 -45.625 50.9375 C-47.37918947 51.9243008 -49.13336706 52.9111235 -50.88679504 53.89927673 C-52.70749932 54.92311211 -54.53146496 55.94094034 -56.35595703 56.95800781 C-62.12634368 60.18207612 -67.84153073 63.50173825 -73.5625 66.8125 C-74.65498047 67.44269043 -75.74746094 68.07288086 -76.87304688 68.72216797 C-83.47104496 72.52893644 -90.05140235 76.36375142 -96.61181641 80.23486328 C-109.02557693 87.55979022 -121.47681638 94.82196301 -133.96484375 102.01953125 C-134.54376877 102.35321213 -135.12269379 102.68689301 -135.71916199 103.03068542 C-138.51029878 104.6389171 -141.30235 106.24553753 -144.09545898 107.8503418 C-145.11325439 108.435979 -146.1310498 109.02161621 -147.1796875 109.625 C-148.50589111 110.38683594 -148.50589111 110.38683594 -149.85888672 111.1640625 C-150.8954541 111.76992187 -151.93202148 112.37578125 -153 113 C-154.21385219 113.48938663 -154.21385219 113.48938663 -155.45222664 113.98865986 C-158.46223342 115.37745062 -160.62362289 116.67484031 -163 119 C-164.4888771 123.72044071 -164.3050462 128.41177849 -164.1953125 133.3112793 C-164.19908281 134.77527584 -164.20728003 136.23926665 -164.21955872 137.70321655 C-164.24058486 141.66882521 -164.20055267 145.63175039 -164.15000534 149.5970037 C-164.10810833 153.74763332 -164.12441603 157.89801396 -164.13500977 162.04878235 C-164.14660761 169.90778603 -164.1091129 177.76571696 -164.05248928 185.62449533 C-163.97136772 197.16698857 -163.96030836 208.70959572 -163.95379639 220.25233936 C-163.95276315 221.9543438 -163.95172559 223.65634823 -163.95068359 225.35835266 C-163.95029083 226.18912553 -163.94989807 227.0198984 -163.94949341 227.87584621 C-163.94544711 232.81931384 -163.92585477 237.76241864 -163.89264774 242.70577466 C-163.87311999 245.77604221 -163.86107135 248.84631276 -163.850317 251.91662216 C-163.8434042 253.3425023 -163.83297002 254.76837026 -163.81879616 256.1941967 C-163.79976757 258.13706198 -163.79393271 260.08004327 -163.78881836 262.022995 C-163.78136093 263.11121394 -163.7739035 264.19943289 -163.76622009 265.32062817 C-164 268 -164 268 -166 271 C-173.95717006 268.82986271 -178.50882302 261.65436302 -182.640625 255.015625 C-186.67950297 246.05581525 -187.4788439 237.24399444 -187.59448242 227.51733398 C-187.62062119 226.21505859 -187.64675995 224.9127832 -187.6736908 223.57104492 C-187.75656278 219.2962696 -187.80824718 215.02139109 -187.85546875 210.74609375 C-187.86406363 210.01517934 -187.87265851 209.28426493 -187.88151383 208.5312016 C-187.9624607 201.62400188 -188.03301067 194.71678606 -188.07538891 187.80923367 C-188.12983549 179.01682049 -188.23846776 170.22884671 -188.42162818 161.43814415 C-188.54653649 155.22976031 -188.60961509 149.02256458 -188.62742692 142.81296021 C-188.63964367 139.11407011 -188.67820739 135.42004565 -188.78337669 131.72253227 C-189.38908612 109.37765545 -189.38908612 109.37765545 -185.4577179 103.81954384 C-181.78131353 100.40120619 -177.71058522 98.44470756 -173.01930618 96.77078915 C-169.85042732 95.56119674 -167.11627145 93.82015813 -164.2265625 92.05078125 C-162.02783466 90.80152648 -159.82727498 89.55549095 -157.625 88.3125 C-155.80112421 87.2774712 -153.97801253 86.24110504 -152.15493774 85.20466614 C-150.91879951 84.5019748 -149.68245181 83.79965182 -148.44589233 83.09770203 C-141.16918354 78.96556104 -133.92470478 74.77778321 -126.67944336 70.59082031 C-125.62378174 69.98077148 -124.56812012 69.37072266 -123.48046875 68.7421875 C-122.42263184 68.13084961 -121.36479492 67.51951172 -120.27490234 66.88964844 C-117.45241234 65.26104604 -114.62796186 63.63592408 -111.80200195 62.01335144 C-110.05727001 61.0115383 -108.31299943 60.00892631 -106.56884766 59.00610352 C-104.4014322 57.76026998 -102.23321005 56.5158382 -100.06396484 55.27319336 C-94.84529901 52.27079462 -89.679938 49.20346977 -84.5625 46.03125 C-78.06509137 42.01010448 -71.45962537 38.20458508 -64.8125 34.4375 C-62.97489039 33.39196779 -61.13786012 32.34542273 -59.3008728 31.29879761 C-58.05085532 30.58660318 -56.80071288 29.87462805 -55.55044556 29.16287231 C-49.19071336 25.54187322 -42.84231573 21.90143549 -36.5 18.25 C-35.43676514 17.63954834 -34.37353027 17.02909668 -33.27807617 16.40014648 C-28.16550931 13.45312505 -23.09009857 10.46214955 -18.0703125 7.359375 C-17.14798828 6.79186523 -16.22566406 6.22435547 -15.27539062 5.63964844 C-13.55613309 4.57603996 -11.8434134 3.50176157 -10.13867188 2.41503906 C-9.38392578 1.94807617 -8.62917969 1.48111328 -7.8515625 1 C-7.20010254 0.5875 -6.54864258 0.175 -5.87744141 -0.25 C-3.53303427 -1.1865434 -2.33778144 -0.83051908 0 0 Z " fill="#FEFEFC" transform="translate(343,122)"/>
<path d="M0 0 C0.87011719 0.40992188 0.87011719 0.40992188 1.7578125 0.828125 C2.8303125 1.240625 3.9028125 1.653125 5.0078125 2.078125 C7.7578125 4.828125 7.7578125 4.828125 8.02636719 7.94042969 C7.99446289 9.11508789 7.96255859 10.28974609 7.9296875 11.5 C7.89246582 13.27262207 7.89246582 13.27262207 7.85449219 15.08105469 C7.82258789 15.98758789 7.79068359 16.89412109 7.7578125 17.828125 C11.63462798 15.58124237 15.50893455 13.33006789 19.3828125 11.078125 C20.47722656 10.44390625 21.57164062 9.8096875 22.69921875 9.15625 C29.14339287 5.43577193 29.14339287 5.43577193 35.37109375 1.37109375 C37.7578125 -0.171875 37.7578125 -0.171875 40.3203125 -0.109375 C43.02289247 0.93007884 45.34054132 2.23963251 47.7578125 3.828125 C46.45813086 7.72716991 45.11154827 8.01819482 41.54296875 9.9375 C40.46337891 10.52789062 39.38378906 11.11828125 38.27148438 11.7265625 C36.5631543 12.64308594 36.5631543 12.64308594 34.8203125 13.578125 C27.60248533 17.47145384 20.61992316 21.40568089 13.98046875 26.234375 C6.09340489 31.88977404 6.09340489 31.88977404 1.7578125 32.828125 C-1.72064536 31.75822786 -4.39242303 30.06525895 -7.2421875 27.828125 C-5.07895503 25.51570408 -2.86570946 23.8124854 -0.1796875 22.140625 C0.51253906 21.70363281 1.20476562 21.26664063 1.91796875 20.81640625 C3.7578125 19.828125 3.7578125 19.828125 5.7578125 19.828125 C5.7578125 19.168125 5.7578125 18.508125 5.7578125 17.828125 C-3.18659786 22.10896799 -11.75519111 26.79907876 -20.265625 31.87890625 C-27.41977215 36.14256395 -34.6617077 40.25669824 -41.89355469 44.38671875 C-46.95136523 47.29019049 -51.94491959 50.24477151 -56.84375 53.41015625 C-61.29010863 56.27463343 -65.83472703 58.84358025 -70.49560547 61.34033203 C-75.16407034 63.86918758 -79.72769372 66.57582771 -84.3046875 69.265625 C-92.93260125 74.31795819 -101.57747141 79.33917186 -110.2421875 84.328125 C-121.58474337 90.86239597 -132.89801309 97.44564954 -144.19970703 104.05029297 C-149.56688878 107.18653254 -154.93572772 110.31993058 -160.3046875 113.453125 C-161.29807129 114.03328369 -162.29145508 114.61344238 -163.31494141 115.21118164 C-165.14536187 116.27947815 -166.97667734 117.34624334 -168.80908203 118.41113281 C-170.3448222 119.30551732 -171.8774951 120.20520895 -173.40576172 121.11230469 C-178.02456042 123.828125 -178.02456042 123.828125 -180.2421875 123.828125 C-180.22834929 141.74437847 -180.18596752 159.66033 -180.11009693 177.57642746 C-180.07552184 185.89619597 -180.05010127 194.21580009 -180.04663086 202.53564453 C-180.04358051 209.79172597 -180.02294699 217.04751405 -179.98166293 224.30348229 C-179.96042771 228.14148418 -179.94768299 231.97907003 -179.95603371 235.81713104 C-179.96363469 239.4387621 -179.94751008 243.05955442 -179.91412735 246.68103218 C-179.90211038 248.62531022 -179.91440374 250.56969242 -179.92774963 252.51396179 C-179.7590068 265.60570473 -174.81250413 276.02154437 -166.2421875 285.828125 C-164.27413474 287.50492259 -162.54025063 288.62164185 -160.2421875 289.828125 C-163.30900139 291.65575224 -165.06044382 292.07290163 -168.5546875 291.328125 C-175.85792082 289.41252282 -179.67876794 285.04761056 -183.5546875 278.765625 C-186.72931343 273.26004086 -188.49345178 268.9585341 -188.48269653 262.53227234 C-188.48544586 261.26327591 -188.48819519 259.99427948 -188.49102783 258.68682861 C-188.48395046 257.28820706 -188.47668086 255.88958646 -188.46923828 254.4909668 C-188.4686739 253.01241565 -188.46899126 251.53386394 -188.47012329 250.05531311 C-188.47069674 246.04742331 -188.45894363 242.0396534 -188.44497538 238.03179145 C-188.4324668 233.84109083 -188.43129742 229.65038742 -188.42892456 225.45967102 C-188.42271017 217.52663437 -188.40629989 209.5936529 -188.38622558 201.66064054 C-188.36386533 192.62805607 -188.35287283 183.59546896 -188.34283471 174.56286371 C-188.32193364 155.9845862 -188.28675843 137.40636004 -188.2421875 118.828125 C-189.16257812 118.36792969 -189.16257812 118.36792969 -190.1015625 117.8984375 C-192.1484375 116.875 -194.1953125 115.8515625 -196.2421875 114.828125 C-194.90527469 110.81738657 -193.36886288 110.51781284 -189.6796875 108.515625 C-188.39101849 107.80372557 -187.10333224 107.09004552 -185.81640625 106.375 C-185.09243652 105.97474609 -184.3684668 105.57449219 -183.62255859 105.16210938 C-179.04162136 102.59490517 -174.5223368 99.92106475 -169.9921875 97.265625 C-155.97532758 89.07339456 -141.90786124 80.96957019 -127.83837891 72.86816406 C-114.60434079 65.24702063 -101.38743475 57.6014846 -88.2421875 49.828125 C-72.83286133 40.71591652 -57.32160851 31.78315131 -41.80761719 22.85058594 C-39.54150848 21.54558192 -37.27563674 20.24016634 -35.01000977 18.93432617 C-32.81086092 17.66732883 -30.61084436 16.40183626 -28.40991211 15.13793945 C-23.56594759 12.35088377 -18.741546 9.54287241 -13.97265625 6.62890625 C-13.18511963 6.15106689 -12.39758301 5.67322754 -11.58618164 5.1809082 C-10.15554684 4.30873883 -8.73099775 3.42646828 -7.31420898 2.53198242 C-2.7982306 -0.21449851 -2.7982306 -0.21449851 0 0 Z " fill="#EA6074" transform="translate(265.2421875,62.171875)"/>
<path d="M0 0 C2.10096902 1.24873213 3.51349931 2.32988412 5.11328125 4.1953125 C5.65551758 6.90673828 5.65551758 6.90673828 5.8203125 9.890625 C5.91469604 11.37973389 5.91469604 11.37973389 6.01098633 12.89892578 C6.04474365 13.6567334 6.07850098 14.41454102 6.11328125 15.1953125 C10.05166875 12.90516849 13.98883745 10.61293732 17.92578125 8.3203125 C19.04533203 7.66933594 20.16488281 7.01835938 21.31835938 6.34765625 C22.39150391 5.72246094 23.46464844 5.09726563 24.5703125 4.453125 C25.5600708 3.8770752 26.5498291 3.30102539 27.56958008 2.70751953 C29.44994015 1.5896627 31.29313289 0.40874474 33.11328125 -0.8046875 C37.77838822 -1.31176434 40.30034691 -0.49617056 44.11328125 2.1953125 C42.6545337 5.98805613 40.9465511 7.14307619 37.36328125 8.9453125 C35.88794922 9.71294922 35.88794922 9.71294922 34.3828125 10.49609375 C33.30386719 11.05683594 32.22492188 11.61757812 31.11328125 12.1953125 C28.75018504 13.49461848 26.39564143 14.80160918 24.05078125 16.1328125 C23.45813477 16.46917725 22.86548828 16.80554199 22.25488281 17.15209961 C17.72077317 19.76365173 13.47505337 22.67318699 9.2265625 25.71875 C5.0380922 28.64525975 1.31769436 31.08387084 -3.88671875 30.1953125 C-6.34561142 29.00701918 -8.56545609 27.65179103 -10.88671875 26.1953125 C-6.79938734 22.74662663 -2.44865968 19.95738096 2.11328125 17.1953125 C-1.11792171 17.84937794 -3.60666118 19.01515728 -6.46484375 20.64453125 C-7.36565674 21.1554834 -8.26646973 21.66643555 -9.19458008 22.19287109 C-10.16548584 22.75055176 -11.1363916 23.30823242 -12.13671875 23.8828125 C-13.15596436 24.46369629 -14.17520996 25.04458008 -15.2253418 25.64306641 C-24.42268739 30.89768648 -33.56992362 36.23803466 -42.7109375 41.58984375 C-49.12715271 45.34280171 -55.56866246 49.05118755 -62.01171875 52.7578125 C-69.99911982 57.35559971 -77.96084461 61.99226098 -85.88671875 66.6953125 C-97.05946826 73.3234734 -108.31131123 79.81121875 -119.57226562 86.28808594 C-126.08387237 90.03504174 -132.5896054 93.79218637 -139.09619141 97.54785156 C-144.13641757 100.45658557 -149.17757874 103.36365044 -154.22271729 106.26385498 C-156.00421453 107.28806915 -157.78536197 108.31288901 -159.56640625 109.33789062 C-161.797485 110.62164625 -164.02921448 111.90427189 -166.26171875 113.18554688 C-167.27492187 113.76884766 -168.288125 114.35214844 -169.33203125 114.953125 C-170.21391113 115.4598877 -171.09579102 115.96665039 -172.00439453 116.48876953 C-172.95556152 117.05192871 -173.90672852 117.61508789 -174.88671875 118.1953125 C-175.54601726 118.46291256 -176.20531576 118.73051262 -176.88459301 119.00622177 C-179.34545295 120.16173199 -181.00790531 121.21643804 -182.88671875 123.1953125 C-184.0952343 127.43589236 -183.92844182 131.59731396 -183.8425293 135.98095703 C-183.84851639 137.28074997 -183.85450348 138.58054291 -183.860672 139.91972351 C-183.87577082 143.48075539 -183.84109217 147.03973968 -183.79666495 150.60046244 C-183.75771299 154.33620657 -183.76191643 158.07191887 -183.76069641 161.80783081 C-183.75237634 168.08773388 -183.7137919 174.36686039 -183.6550293 180.64648438 C-183.58746376 187.88385486 -183.55741173 195.12056045 -183.55005425 202.35822785 C-183.542143 210.08589924 -183.51128806 217.81334 -183.47126031 225.54090643 C-183.46098608 227.75515629 -183.45439299 229.96939334 -183.44843102 232.1836586 C-183.4355042 236.33381502 -183.39633472 240.48333769 -183.35424805 244.63330078 C-183.35246552 245.84824722 -183.35068298 247.06319366 -183.34884644 248.31495667 C-183.1704334 261.32524781 -180.24788319 273.02718559 -170.65234375 282.37109375 C-169.25862861 283.56464768 -167.84022479 284.73044728 -166.390625 285.85546875 C-165.89433594 286.29761719 -165.39804688 286.73976563 -164.88671875 287.1953125 C-164.88671875 287.8553125 -164.88671875 288.5153125 -164.88671875 289.1953125 C-169.4018775 289.5565252 -172.86703017 289.68476302 -177.01171875 287.6953125 C-184.60094673 281.09598382 -190.12204367 274.24889231 -191.24213409 263.91686058 C-191.36037508 260.09480057 -191.35636122 256.28416136 -191.30566406 252.46166992 C-191.30129307 251.0003502 -191.29880809 249.53902382 -191.29804993 248.07769775 C-191.2930908 244.95051995 -191.27625692 241.82371885 -191.25031281 238.69664574 C-191.21066609 233.75027686 -191.20605077 228.80424765 -191.2074585 223.85774231 C-191.20619143 209.79924472 -191.15820475 195.74110835 -191.07568359 181.68286133 C-191.03032691 173.90345107 -191.01362501 166.12449677 -191.02765918 158.34496194 C-191.03479615 153.428216 -191.00610399 148.51339812 -190.95074415 143.59697855 C-190.92466861 140.5416579 -190.93193844 137.48709037 -190.94862938 134.43173218 C-190.9496604 133.01632641 -190.93698273 131.60083368 -190.90953255 130.18569374 C-190.83388013 126.07061734 -190.83031245 122.18662793 -191.88671875 118.1953125 C-193.87432853 116.14103522 -195.55166082 115.10812512 -198.1696434 113.98914051 C-198.73627827 113.72717727 -199.30291313 113.46521402 -199.88671875 113.1953125 C-199.88671875 112.5353125 -199.88671875 111.8753125 -199.88671875 111.1953125 C-198.09619141 109.92114258 -198.09619141 109.92114258 -195.55078125 108.46484375 C-194.60219238 107.91707275 -193.65360352 107.36930176 -192.67626953 106.80493164 C-191.63196777 106.21188232 -190.58766602 105.61883301 -189.51171875 105.0078125 C-188.4326123 104.38704834 -187.35350586 103.76628418 -186.24169922 103.12670898 C-183.94927791 101.80860805 -181.65557428 100.49311222 -179.359375 99.18164062 C-176.03974982 97.28477809 -172.72795167 95.37458452 -169.41796875 93.4609375 C-161.15882352 88.68608964 -152.89531608 83.91887772 -144.61901855 79.17381287 C-142.86191393 78.16609291 -141.10542351 77.1573107 -139.34912109 76.14819336 C-137.1592682 74.8903567 -134.96827434 73.6345033 -132.77587891 72.38110352 C-127.88327994 69.56878202 -123.06091716 66.69527501 -118.3203125 63.6328125 C-113.88363743 60.7778256 -109.353781 58.20929988 -104.70458984 55.71875 C-99.64325716 52.98242043 -94.67787911 50.07849516 -89.69921875 47.1953125 C-88.00635742 46.21691406 -88.00635742 46.21691406 -86.27929688 45.21875 C-77.81842845 40.32635976 -69.37505888 35.40407631 -60.93774414 30.47119141 C-55.73739504 27.4330635 -50.52942232 24.40906949 -45.30859375 21.40625 C-44.20596191 20.77203125 -43.10333008 20.1378125 -41.96728516 19.484375 C-39.76721441 18.2200036 -37.56638166 16.95695712 -35.36474609 15.6953125 C-30.17927443 12.71376458 -25.02945283 9.69224382 -19.94140625 6.546875 C-19.02133789 5.98049316 -18.10126953 5.41411133 -17.15332031 4.83056641 C-15.43744638 3.76837384 -13.72801257 2.69568056 -12.02636719 1.61083984 C-10.89376465 0.91015381 -10.89376465 0.91015381 -9.73828125 0.1953125 C-9.08682129 -0.2171875 -8.43536133 -0.6296875 -7.76416016 -1.0546875 C-4.80427652 -2.23710135 -2.81098927 -1.19888983 0 0 Z " fill="#FDBB63" transform="translate(339.88671875,104.8046875)"/>
<path d="M0 0 C1.175625 0.7115625 1.175625 0.7115625 2.375 1.4375 C3.23222656 1.81390625 4.08945312 2.1903125 4.97265625 2.578125 C7.375 4.4375 7.375 4.4375 8.08203125 7.79296875 C8.11683594 9.05753906 8.15164063 10.32210937 8.1875 11.625 C8.25904297 13.53345703 8.25904297 13.53345703 8.33203125 15.48046875 C8.34621094 16.45628906 8.36039063 17.43210938 8.375 18.4375 C7.48167969 18.38335937 6.58835937 18.32921875 5.66796875 18.2734375 C2.07266477 18.45256297 0.64497372 19.10424066 -2.3125 21.0625 C-5.72234836 23.28861862 -9.1855111 25.30977003 -12.765625 27.24609375 C-18.47839741 30.33733997 -24.08785376 33.58429572 -29.6875 36.875 C-38.27567388 41.90302698 -46.87774341 46.90563443 -55.5 51.875 C-56.5710498 52.4925415 -57.64209961 53.11008301 -58.74560547 53.74633789 C-64.33513285 56.96810838 -69.92672761 60.18626451 -75.51953125 63.40234375 C-88.88140123 71.06929475 -88.88140123 71.06929475 -102.125 78.9375 C-112.03821272 84.9456816 -122.11866054 90.67023854 -132.16699219 96.44824219 C-137.80170535 99.68967419 -143.43201147 102.93873712 -149.0625 106.1875 C-150.5316687 107.03465576 -150.5316687 107.03465576 -152.03051758 107.89892578 C-153.99841277 109.03394461 -155.95020407 110.19738025 -157.88418579 111.38926697 C-160.63037932 112.99736701 -163.35962333 114.09838994 -166.35719299 115.15892029 C-171.90280535 117.34889562 -176.80169503 119.74053143 -180.625 124.4375 C-183.92796507 133.19557316 -183.01491201 143.12866803 -182.71614265 152.35221887 C-182.61507758 156.06215405 -182.61944335 159.77210884 -182.61071777 163.48320007 C-182.5813142 169.71637429 -182.48176314 175.94509417 -182.33300781 182.17651367 C-182.14326598 190.13539626 -182.06304829 198.0912745 -182.0200882 206.05215168 C-181.98266659 212.94123678 -181.90130373 219.829702 -181.80959129 226.71825385 C-181.78145911 228.90949375 -181.75787361 231.10075353 -181.73439026 233.2920475 C-181.68625565 237.40576339 -181.59292118 241.51731586 -181.49414062 245.63012695 C-181.48226715 246.8248613 -181.47039368 248.01959564 -181.4581604 249.25053406 C-181.05506443 262.62695861 -176.64870887 274.46034264 -167.625 284.4375 C-165.3588381 286.39580594 -163.19854586 287.88264938 -160.625 289.4375 C-164.21376902 291.83001268 -165.38749208 291.99717086 -169.625 291.4375 C-178.54915398 287.4474591 -183.89578761 280.2346164 -187.625 271.4375 C-188.71187324 268.17688027 -188.74812123 265.81360786 -188.74525452 262.38215637 C-188.74731651 260.48278572 -188.74731651 260.48278572 -188.74942017 258.54504395 C-188.74588102 257.13915992 -188.74224621 255.73327613 -188.73852539 254.32739258 C-188.73824336 252.84913637 -188.73840156 251.37088003 -188.7389679 249.8926239 C-188.73925526 245.87638848 -188.73336834 241.86018282 -188.72639394 237.84395432 C-188.7201503 233.64789877 -188.7195558 229.45184256 -188.71836853 225.25578308 C-188.7152582 217.30853333 -188.70704882 209.36129732 -188.69701904 201.41405362 C-188.68584866 192.36699966 -188.68034512 183.31994505 -188.67532361 174.27288592 C-188.66486597 155.66108282 -188.64727229 137.04929252 -188.625 118.4375 C-189.553125 118.14875 -190.48125 117.86 -191.4375 117.5625 C-194.625 116.4375 -194.625 116.4375 -197.625 114.4375 C-197.625 157.3375 -197.625 200.2375 -197.625 244.4375 C-197.955 244.4375 -198.285 244.4375 -198.625 244.4375 C-199.02285284 227.53064415 -199.32224046 210.6252563 -199.50580692 193.71478462 C-199.59332415 185.86197203 -199.71252125 178.01207376 -199.9074707 170.16113281 C-200.07739681 163.3146359 -200.18669376 156.47024905 -200.22450441 149.62170208 C-200.24660088 145.99696437 -200.29812529 142.37825976 -200.42241096 138.75546646 C-201.14840483 116.75566056 -201.14840483 116.75566056 -196.97895241 111.27302361 C-193.0102989 107.83204698 -188.64739289 105.87707219 -183.71123219 104.19863319 C-180.61145987 103.06772379 -177.99607843 101.43833056 -175.19140625 99.70703125 C-173.19048818 98.55402082 -171.18918199 97.40168371 -169.1875 96.25 C-168.10202881 95.62416016 -167.01655762 94.99832031 -165.89819336 94.35351562 C-160.71042358 91.36287946 -155.52040528 88.37622811 -150.32557678 85.39787292 C-148.57391854 84.39326747 -146.8228747 83.38759951 -145.07202148 82.3815918 C-142.88787063 81.12700093 -140.7025685 79.87441122 -138.51586914 78.62426758 C-133.62269521 75.81162488 -128.79975158 72.93781986 -124.05859375 69.875 C-119.60004262 67.00490271 -115.04416337 64.42831378 -110.37158203 61.92529297 C-105.70311865 59.39643823 -101.13947356 56.68982949 -96.5625 54 C-87.789896 48.86232312 -78.99826769 43.75944767 -70.1875 38.6875 C-62.21165329 34.09461575 -54.25440136 29.47358542 -46.33032227 24.79199219 C-40.99889564 21.64583631 -35.62713033 18.57628396 -30.24609375 15.515625 C-25.32663939 12.70450822 -20.45008982 9.82005538 -15.57226562 6.9375 C-14.23651335 6.14859933 -12.8993193 5.36213366 -11.56054688 4.57836914 C-10.25300362 3.80766409 -8.95230337 3.02524785 -7.65820312 2.23217773 C-2.91058314 -0.62369639 -2.91058314 -0.62369639 0 0 Z " fill="#5994FA" transform="translate(408.625,144.5625)"/>
<path d="M0 0 C0.33 0.66 0.66 1.32 1 2 C2.65438613 2.69658363 4.32254318 3.36096883 6 4 C6.99 4.66 7.98 5.32 9 6 C9.36800098 8.5551815 9.36800098 8.5551815 9.35835266 11.8543396 C9.36221985 13.10187012 9.36608704 14.34940063 9.37007141 15.63473511 C9.35932694 17.02520929 9.34834792 18.41568167 9.3371582 19.80615234 C9.33635218 21.26479074 9.33694521 22.72343048 9.33883667 24.18206787 C9.34040092 27.32947445 9.3329839 30.47669004 9.31899452 33.6240654 C9.2978806 38.60952406 9.3026181 43.59474845 9.3120575 48.58023071 C9.33494039 62.75943737 9.32314747 76.9385066 9.28491211 91.11767578 C9.26403616 98.9443275 9.26485741 106.7706888 9.28844708 114.59733546 C9.302064 119.54353694 9.28907788 124.48870455 9.25584948 129.43480182 C9.24140051 132.52972196 9.25223531 135.62418993 9.26983261 138.71907806 C9.27298289 140.14278056 9.26608151 141.56655084 9.24776649 142.99013901 C9.12941527 152.77782656 10.8217632 159.66208678 16 168 C16.39005376 168.63473425 16.78010752 169.2694685 17.18198109 169.92343712 C20.37678246 174.37874097 24.87663421 176.48131917 30 178 C32.45275478 178.27800877 34.5248606 178.21065016 37 178 C38.80654484 174.11836561 39.25675726 171.04719834 39.2784729 166.78007507 C39.28963638 165.52790695 39.30079987 164.27573883 39.31230164 162.98562622 C39.31466635 161.6058963 39.31684205 160.22616604 39.31884766 158.84643555 C39.32814991 157.38758287 39.33831902 155.9287355 39.34928894 154.46989441 C39.37656963 150.51578239 39.3917326 146.56170597 39.40471697 142.60752463 C39.42035596 138.47283077 39.44714374 134.3382095 39.4727478 130.2035675 C39.51952198 122.37683256 39.55627268 114.55008395 39.58942068 106.72328073 C39.62765168 97.81156033 39.67705928 88.89991286 39.72740483 79.98825395 C39.83070444 61.65888935 39.91997126 43.32948023 40 25 C43.59666664 26.33590475 46.96697639 27.62515746 50 30 C50.61803246 32.63975716 50.61803246 32.63975716 50.60800171 35.88088989 C50.61632019 37.10888809 50.62463867 38.33688629 50.63320923 39.60209656 C50.61710746 40.96536817 50.60052003 42.32863412 50.58349609 43.69189453 C50.58372277 45.12599375 50.58613637 46.56009404 50.59057617 47.9941864 C50.59629262 51.89354477 50.57095114 55.7921581 50.53990126 59.6913743 C50.51236287 63.77508856 50.51236089 67.8588038 50.50918579 71.94259644 C50.49997422 78.80756509 50.4724278 85.67225573 50.43212891 92.53710938 C50.37547063 102.19717512 50.35299725 111.85709979 50.33684421 121.51730561 C50.32435336 128.22411199 50.30369401 134.93089736 50.2814641 141.63767767 C50.27611334 143.25934198 50.27097587 144.88100701 50.26605177 146.50267267 C50.25167019 151.13379364 50.23212271 155.76483669 50.20457458 160.39589882 C50.1969079 161.79503782 50.19082284 163.1941866 50.18649673 164.59333992 C50.13891936 179.09239997 50.13891936 179.09239997 49 186 C45.33966804 189.60325076 39.91386313 191.24993318 34.8125 191.5 C25.18560384 190.23745624 18.08104582 184.72281738 11.9375 177.5 C1.37133424 163.66186575 -1.31709124 150.46584394 -1.24291992 133.38647461 C-1.24399492 131.93836379 -1.24593683 130.49025341 -1.24867249 129.04214478 C-1.25348532 125.13985845 -1.24591289 121.23768793 -1.23571944 117.3354156 C-1.22689278 113.2453048 -1.22869719 109.15519712 -1.2290802 105.06507874 C-1.22814646 98.20848669 -1.21949666 91.35193916 -1.20581055 84.49536133 C-1.19003165 76.56081719 -1.18481453 68.62632156 -1.1855461 60.69176286 C-1.18615529 53.05325073 -1.18106345 45.41475441 -1.17275429 37.77624702 C-1.16921824 34.52545613 -1.16739061 31.27467082 -1.16686058 28.0238781 C-1.16585973 24.20629589 -1.15978444 20.38875474 -1.14969444 16.57118607 C-1.1467629 15.16706277 -1.14554539 13.76293475 -1.14612198 12.35880852 C-1.14660931 10.4504185 -1.14036351 8.54203022 -1.13371277 6.63365173 C-1.13203692 5.56353316 -1.13036108 4.49341459 -1.12863445 3.39086819 C-1 1 -1 1 0 0 Z " fill="#CE384E" transform="translate(68,175)"/>
<path d="M0 0 C0.66 0.33 1.32 0.66 2 1 C1.67 1.66 1.34 2.32 1 3 C1.5950789 3.19123255 2.19015779 3.3824651 2.80326939 3.57949257 C9.79822674 6.06731913 16.2619737 9.12538529 21 15 C24.50398648 24.50551179 23.46116916 35.51587373 23.12667346 45.50078535 C23.01194516 49.54132178 23.00981281 53.58201809 22.99440002 57.62393188 C22.95314588 64.40266195 22.8395575 71.17683416 22.67358398 77.95361328 C22.43984924 87.50196532 22.33804022 97.04841009 22.26215065 106.59913898 C22.19853839 114.0325239 22.10094341 121.46553425 21.99609375 128.8984375 C21.98511115 129.69265846 21.97412855 130.48687942 21.96281314 131.30516768 C21.89718984 135.87277144 21.81402335 140.43947883 21.70519066 145.00626373 C21.67414096 146.3872261 21.64786365 147.76830553 21.62678146 149.14945602 C21.59674318 151.03873917 21.54650576 152.9276686 21.49534607 154.8164978 C21.47213508 155.87203543 21.44892408 156.92757305 21.42500973 158.01509666 C20.9316295 161.48017567 19.70581884 163.96522356 18 167 C10.36273291 164.4542443 5.78802724 157.96174452 2.1875 151 C1.39907612 149.36053375 0.67852386 147.687918 0 146 C-0.24768442 145.41694816 -0.49536884 144.83389631 -0.75055885 144.23317623 C-3.38487174 137.37223878 -3.42423453 130.90070707 -3.38818359 123.61743164 C-3.39344055 122.30259796 -3.39869751 120.98776428 -3.40411377 119.63308716 C-3.41770109 116.05293571 -3.41252713 112.47304578 -3.40297651 108.89289021 C-3.39534622 105.13955976 -3.40243381 101.3862507 -3.40713501 97.63291931 C-3.41257808 91.33946736 -3.40543421 85.04612138 -3.39111328 78.75268555 C-3.37473976 71.47305462 -3.38011495 64.19367516 -3.3965925 56.91405016 C-3.41018961 50.65654247 -3.41213726 44.3991106 -3.40427649 38.14159292 C-3.39959654 34.40696071 -3.3989849 30.67244697 -3.40888596 26.93782234 C-3.41913187 22.78399756 -3.40494769 18.63061012 -3.38818359 14.47680664 C-3.39425629 13.2357869 -3.40032898 11.99476715 -3.40658569 10.71614075 C-3.39812622 9.59048706 -3.38966675 8.46483337 -3.38095093 7.30506897 C-3.37925431 5.83206377 -3.37925431 5.83206377 -3.37752342 4.32930088 C-3.25294069 3.56063159 -3.12835796 2.7919623 -3 2 C-2.01 1.34 -1.02 0.68 0 0 Z " fill="#DFE5F0" transform="translate(230,267)"/>
<path d="M0 0 C1.29409289 0.61996078 2.58519673 1.24616353 3.875 1.875 C4.95394531 2.39707031 4.95394531 2.39707031 6.0546875 2.9296875 C8 4 8 4 10 6 C10.25053978 8.54515076 10.25053978 8.54515076 10.2515564 11.82983398 C10.25693924 13.07184067 10.26232208 14.31384735 10.26786804 15.5934906 C10.26385332 16.9776921 10.25968238 18.36189315 10.25537109 19.74609375 C10.25812002 21.19812721 10.26179933 22.65015916 10.26634216 24.10218811 C10.27446793 27.23481271 10.27661908 30.36736588 10.27439499 33.5 C10.2715648 38.45969481 10.28590523 43.4192468 10.30337524 48.37890625 C10.35042284 62.48451566 10.3743255 76.59011644 10.38085938 90.69580078 C10.38461837 98.48212548 10.40272011 106.26828954 10.43595374 114.0545454 C10.45610813 118.97763821 10.45856656 123.90031493 10.44767356 128.82343197 C10.44505298 131.89961979 10.45913681 134.97556921 10.47775459 138.05169487 C10.48304538 139.46976283 10.48163351 140.88787556 10.47271919 142.30592537 C10.41168117 152.87536065 11.48960925 162.02020983 19 170 C19.66 170.721875 20.32 171.44375 21 172.1875 C24.84667873 175.6735526 27.58825073 176.24789879 32.75 176.125 C33.73484375 176.10695313 34.7196875 176.08890625 35.734375 176.0703125 C36.48203125 176.04710937 37.2296875 176.02390625 38 176 C39.58834192 171.77961239 40.25506697 168.27545339 40.2784729 163.77371216 C40.28963638 162.54541183 40.30079987 161.31711151 40.31230164 160.05158997 C40.31466617 158.70382721 40.3168419 157.35606412 40.31884766 156.00830078 C40.32815299 154.57885678 40.33832256 153.14941818 40.34928894 151.71998596 C40.3765349 147.85064139 40.39172227 143.98133312 40.40471697 140.11191797 C40.42037121 136.06398015 40.44715411 132.01611619 40.4727478 127.9682312 C40.51949502 120.30798513 40.55625874 112.64772509 40.58942068 104.98740947 C40.62767075 96.26429508 40.67707335 87.54125495 40.72740483 78.81820321 C40.83066434 60.87885652 40.91994416 42.93946449 41 25 C44.77036494 25.5236618 47.34258883 26.18928346 50 29 C50.49219131 31.7161932 50.49219131 31.7161932 50.48101807 35.06639099 C50.48651672 36.33527161 50.49201538 37.60415222 50.49768066 38.91148376 C50.48352369 40.32046885 50.46898445 41.72945013 50.45410156 43.13842773 C50.45297341 44.62004567 50.45360631 46.10166584 50.45587158 47.58328247 C50.45702136 51.61029952 50.43346634 55.63684194 50.40557575 59.6637485 C50.380588 63.8752596 50.37822156 68.08678131 50.37347412 72.2983551 C50.36102985 80.27989555 50.32819481 88.26121745 50.28807616 96.24266154 C50.24346883 105.31189926 50.22138846 114.38114695 50.20129442 123.45046699 C50.16116511 141.35308129 50.09527184 159.25550673 50.01117325 177.15796566 C50.00220699 179.43862919 50 181.71931885 50 184 C48.3125 185.5625 48.3125 185.5625 46 187 C45.319375 187.556875 44.63875 188.11375 43.9375 188.6875 C39.31194083 190.7542392 34.97689747 190.73630812 30 190 C17.12647104 185.00903185 8.90859377 173.54640461 2.97265625 161.546875 C-0.25377567 153.09854725 -0.27476312 145.18563974 -0.22705078 136.23046875 C-0.22648591 134.741623 -0.2268047 133.2527767 -0.22793579 131.76393127 C-0.22850736 127.74175662 -0.21678496 123.71970234 -0.20278788 119.69755554 C-0.19024768 115.48685321 -0.18910743 111.27614782 -0.18673706 107.06542969 C-0.18053193 99.10061858 -0.16413425 91.13586267 -0.14403808 83.17107582 C-0.12164892 74.09972846 -0.11067807 65.0283784 -0.10064721 55.95701027 C-0.07976714 37.30464227 -0.04461004 18.65232558 0 0 Z " fill="#EDA044" transform="translate(139,217)"/>
<path d="M0 0 C3.13384992 1.25353997 6.03145514 2.46075452 9 4 C9.00146656 4.76476371 9.00293312 5.52952742 9.00444412 6.31746578 C9.04153589 24.94722374 9.10058203 43.57679455 9.18390274 62.20640469 C9.22367002 71.21564968 9.25607424 80.22480762 9.27099609 89.23413086 C9.28402461 97.08894058 9.31101983 104.94355855 9.35461307 112.79826027 C9.377201 116.95524368 9.39291229 121.11199084 9.39188385 125.26904106 C9.39113565 129.18685108 9.40914999 133.10413939 9.44116783 137.02181435 C9.44964266 138.45479831 9.45143323 139.88784096 9.44580269 141.32083893 C9.41818793 149.43343447 9.82980987 155.92166023 14 163 C14.46921875 163.80953125 14.9384375 164.6190625 15.421875 165.453125 C18.87115889 170.1198032 22.49067167 173.88560913 28 176 C31.05607447 176.36596848 33.9425878 176.31848044 37 176 C39.5980225 169.07416468 39.30801347 162.11392995 39.31884766 154.80297852 C39.32815565 153.36353498 39.33832561 151.9240968 39.34928894 150.48466492 C39.37650488 146.5926529 39.3917133 142.70067691 39.40471697 138.80859494 C39.42038443 134.73530542 39.44716307 130.66208906 39.4727478 126.58885193 C39.51947171 118.88259817 39.55624667 111.17633054 39.58942068 103.47000784 C39.62768728 94.69366731 39.67708552 85.91740039 39.72740483 77.14112198 C39.83062964 59.09413524 39.91992069 41.04710354 40 23 C43.59690912 24.33599482 46.96811972 25.62326936 50 28 C50.62082577 30.65537453 50.62082577 30.65537453 50.61473083 33.91885376 C50.62449448 35.15526611 50.63425812 36.39167847 50.64431763 37.66555786 C50.62981075 39.03827417 50.61480995 40.41098533 50.59936523 41.78369141 C50.60122887 43.22764508 50.60526461 44.67159734 50.61131287 46.11553955 C50.62130837 50.04173538 50.60007843 53.967212 50.57283282 57.89330339 C50.54901615 62.00505731 50.5519478 66.11679658 50.55152893 70.22860718 C50.54689631 77.1406471 50.52323389 84.05241217 50.48706055 90.96435547 C50.44542334 98.94123436 50.4277516 106.9178652 50.4244408 114.89484656 C50.42083048 123.39734924 50.40192953 131.8997633 50.37732053 140.40222883 C50.37110994 142.84519582 50.36746207 145.28815605 50.36428642 147.73112869 C50.35835137 151.58400081 50.34194346 155.43669848 50.31768227 159.28949738 C50.31028867 160.69830601 50.30617336 162.10713655 50.30570221 163.51596451 C50.30082763 170.92193683 50.2697382 177.90441563 48 185 C43.56179189 188.84244201 38.32598503 189.71469407 32.578125 189.44140625 C21.73594169 187.58509305 14.63721312 179.70910191 8.3125 171.3125 C1.50693945 161.25210614 -0.98972438 150.58433142 -1.5625 138.6875 C-1.60568359 137.85154297 -1.64886719 137.01558594 -1.69335938 136.15429688 C-1.79885307 134.10303065 -1.89987315 132.0515352 -2 130 C-1.34 130 -0.68 130 0 130 C0 87.1 0 44.2 0 0 Z " fill="#3C55CF" transform="translate(211,259)"/>
<path d="M0 0 C0.33 0.66 0.66 1.32 1 2 C2.99618494 2.67800451 4.99695764 3.3425308 7 4 C9.07036288 5.09313053 11.11266322 6.24090588 13.125 7.4375 C14.13820313 8.03433594 15.15140625 8.63117188 16.1953125 9.24609375 C17.12085937 9.82488281 18.04640625 10.40367187 19 11 C20.06126398 11.61260602 20.06126398 11.61260602 21.14396763 12.23758793 C23 14 23 14 23.50057125 16.66934109 C23.50088518 18.29450445 23.50088518 18.29450445 23.50120544 19.95249939 C23.51103958 21.19613754 23.52087372 22.4397757 23.53100586 23.72109985 C23.52163351 25.10174833 23.51185418 26.48239409 23.50170898 27.86303711 C23.50549146 29.31510441 23.51099091 30.76716811 23.51808167 32.21922302 C23.53206441 36.16562198 23.52084651 40.11158632 23.50437045 44.05796123 C23.49053633 48.18541873 23.49697825 52.31285057 23.50050354 56.44032288 C23.50320727 63.37329118 23.48971719 70.30608652 23.46655273 77.23901367 C23.43995238 85.25579294 23.43819192 93.27228278 23.4499411 101.28909105 C23.46071948 108.99755492 23.45453068 116.70591403 23.44038582 124.41436958 C23.43462546 127.69619788 23.4347091 130.97794954 23.43945122 134.25977898 C23.4442226 138.12499033 23.4341129 141.98988472 23.41249657 145.85503578 C23.40693029 147.27401027 23.40646197 148.69301524 23.41144943 150.11199188 C23.41740145 152.04817397 23.40306497 153.98438685 23.38768005 155.92051697 C23.38525016 157.00433623 23.38282026 158.0881555 23.38031673 159.20481777 C22.95598035 162.32352752 22.09496761 163.70024108 20 166 C12.71661715 163.7648878 8.43407199 156.99106217 4.6015625 150.70703125 C1.65602172 144.98205162 -0.25225993 139.49974073 -0.24050903 133.00149536 C-0.24325836 131.82367996 -0.24600769 130.64586456 -0.24884033 129.43235779 C-0.24164978 128.15417679 -0.23445923 126.87599579 -0.22705078 125.55908203 C-0.22648616 124.18875639 -0.22680423 122.81843015 -0.22793579 121.44810486 C-0.2285083 117.73984734 -0.21677053 114.03171989 -0.20278788 110.32349253 C-0.19026352 106.44376699 -0.18910867 102.56403829 -0.18673706 98.68429565 C-0.1805273 91.34273678 -0.16412331 84.00123764 -0.14403808 76.65970504 C-0.12166339 68.29939481 -0.1106817 59.93908168 -0.10064721 51.57874894 C-0.07975663 34.3857981 -0.04459047 17.19290537 0 0 Z " fill="#E3E5EE" transform="translate(85,186)"/>
<path d="M0 0 C2.23426867 1.10440856 4.46710535 2.21156302 6.69921875 3.3203125 C7.64033508 3.78497925 7.64033508 3.78497925 8.60046387 4.2590332 C19.86237903 9.86237903 19.86237903 9.86237903 23 13 C23.10098088 14.91675385 23.13077241 16.83727359 23.13371277 18.75668335 C23.13797775 20.00743149 23.14224274 21.25817963 23.14663696 22.54682922 C23.1462874 23.94577029 23.14582584 25.34471134 23.14526367 26.74365234 C23.14825358 28.2068948 23.15165572 29.67013646 23.15544128 31.13337708 C23.16430338 35.11893357 23.16662034 39.10446862 23.16725707 43.09003401 C23.16820449 46.4126876 23.17188091 49.73533615 23.17542917 53.05798781 C23.18358239 60.89543195 23.18601264 68.7328646 23.18530273 76.5703125 C23.18470195 84.66426403 23.19525197 92.75814891 23.2110464 100.85208356 C23.22410845 107.79222376 23.22948718 114.73234213 23.22884732 121.67249453 C23.22859191 125.82141434 23.23146681 129.97027498 23.24202538 134.11918259 C23.25168377 138.02121081 23.25180115 141.92312303 23.24450874 145.82515526 C23.24346002 147.2590737 23.24584274 148.69299928 23.2518692 150.12690544 C23.25955138 152.08103893 23.25376211 154.03521167 23.24723816 155.98934937 C23.24778293 157.0840624 23.24832769 158.17877544 23.24888897 159.30666161 C23 162 23 162 21 165 C13.04282994 162.82986271 8.49117698 155.65436302 4.359375 149.015625 C0.26694241 139.93701018 -0.42749648 131.21289793 -0.34057617 121.35864258 C-0.34101425 120.04030426 -0.34145233 118.72196594 -0.34190369 117.36367798 C-0.34275695 113.78373888 -0.3252412 110.20410743 -0.30418181 106.62423921 C-0.28530202 102.87000775 -0.28365574 99.11576758 -0.28010559 95.36149597 C-0.27081807 88.26797677 -0.24624941 81.1745979 -0.21605712 74.08114022 C-0.18240995 65.99883387 -0.16600129 57.91652047 -0.15097082 49.8341614 C-0.11969649 33.2226924 -0.06700083 16.61136417 0 0 Z " fill="#E3E6EE" transform="translate(156,228)"/>
<path d="M0 0 C1.77518 1.08483222 3.5189904 2.2209936 5.25 3.375 C3.77490052 7.69493419 0.69349147 9.15986524 -3.125 11.1875 C-4.39740857 11.88882756 -5.66953928 12.59065946 -6.94140625 13.29296875 C-7.58094238 13.64149902 -8.22047852 13.9900293 -8.87939453 14.34912109 C-11.63121486 15.85827654 -14.348213 17.42452582 -17.0625 19 C-17.94550781 19.50789063 -18.82851563 20.01578125 -19.73828125 20.5390625 C-22.20998749 22.04580949 -24.59960999 23.60965721 -26.99609375 25.23046875 C-31.71033946 28.39593784 -36.56876323 31.25082991 -41.5 34.0625 C-43.14080707 35.00358888 -44.78143737 35.94498604 -46.421875 36.88671875 C-47.17871582 37.32072998 -47.93555664 37.75474121 -48.71533203 38.2019043 C-52.32308789 40.28196992 -55.86943816 42.44054296 -59.375 44.6875 C-63.39239928 47.2058697 -67.52730073 49.46052529 -71.69921875 51.7109375 C-76.85550624 54.52345795 -81.94445529 57.45338639 -87.03320312 60.38574219 C-88.66169517 61.32411673 -90.29174143 62.2597925 -91.921875 63.1953125 C-96.73837194 65.97790011 -101.47257081 68.82545153 -106.125 71.875 C-110.2420333 74.53441313 -114.4699448 76.80035902 -118.875 78.9375 C-123.76293869 81.31729509 -128.27230371 83.84665347 -132.6875 87.015625 C-134.75 88.375 -134.75 88.375 -137.51953125 89.74609375 C-141.32508962 91.66497868 -144.8501208 93.89395797 -148.4375 96.1875 C-153.85120472 99.61012737 -159.29568776 102.86236577 -164.953125 105.87109375 C-168.37678834 107.71203004 -171.7517937 109.63106027 -175.125 111.5625 C-176.26710937 112.21605469 -177.40921875 112.86960937 -178.5859375 113.54296875 C-180.57411226 114.69414648 -182.54188021 115.882121 -184.4765625 117.12109375 C-186.75 118.375 -186.75 118.375 -189.75 118.25 C-192.75 117.375 -192.75 117.375 -197.75 114.375 C-197.75 157.275 -197.75 200.175 -197.75 244.375 C-198.08 244.375 -198.41 244.375 -198.75 244.375 C-199.14785284 227.46814415 -199.44724046 210.5627563 -199.63080692 193.65228462 C-199.71832415 185.79947203 -199.83752125 177.94957376 -200.0324707 170.09863281 C-200.20239681 163.2521359 -200.31169376 156.40774905 -200.34950441 149.55920208 C-200.37160088 145.93446437 -200.42312529 142.31575976 -200.54741096 138.69296646 C-201.27340483 116.69316056 -201.27340483 116.69316056 -197.10395241 111.21052361 C-193.1352989 107.76954698 -188.77239289 105.81457219 -183.83623219 104.13613319 C-180.73645987 103.00522379 -178.12107843 101.37583056 -175.31640625 99.64453125 C-173.31548818 98.49152082 -171.31418199 97.33918371 -169.3125 96.1875 C-168.22702881 95.56166016 -167.14155762 94.93582031 -166.02319336 94.29101562 C-160.83542358 91.30037946 -155.64540528 88.31372811 -150.45057678 85.33537292 C-148.69891854 84.33076747 -146.9478747 83.32509951 -145.19702148 82.3190918 C-143.01287063 81.06450093 -140.8275685 79.81191122 -138.64086914 78.56176758 C-133.74769521 75.74912488 -128.92475158 72.87531986 -124.18359375 69.8125 C-119.72504262 66.94240271 -115.16916337 64.36581378 -110.49658203 61.86279297 C-105.82811865 59.33393823 -101.26447356 56.62732949 -96.6875 53.9375 C-87.914896 48.79982312 -79.12326769 43.69694767 -70.3125 38.625 C-62.33665329 34.03211575 -54.37940136 29.41108542 -46.45532227 24.72949219 C-41.12389564 21.58333631 -35.75213033 18.51378396 -30.37109375 15.453125 C-25.45163939 12.64200822 -20.57508982 9.75755538 -15.69726562 6.875 C-14.36142806 6.08604895 -13.02407313 5.29966023 -11.68505859 4.51611328 C-10.37851225 3.74563667 -9.07943039 2.96238028 -7.78759766 2.16748047 C-3.04846358 -0.69283263 -3.04846358 -0.69283263 0 0 Z " fill="#7DACF4" transform="translate(408.75,144.625)"/>
<path d="M0 0 C2.02951535 1.28796166 4.03501678 2.61558 6 4 C3.63005196 6.64381519 1.16666878 8.12881859 -1.96875 9.76953125 C-7.90136062 12.93170626 -13.70351235 16.28355437 -19.5 19.6875 C-21.62223096 20.92996916 -23.74462866 22.17215355 -25.8671875 23.4140625 C-26.90713867 24.02282227 -27.94708984 24.63158203 -29.01855469 25.25878906 C-33.21228598 27.70799407 -37.41824866 30.13575311 -41.625 32.5625 C-48.54762313 36.5593716 -55.43536921 40.61289939 -62.3125 44.6875 C-69.21546101 48.77704948 -76.13902348 52.81744585 -83.1171875 56.77734375 C-89.4983681 60.41402423 -95.82613154 64.1439881 -102.16625977 67.8515625 C-107.69562568 71.08222286 -113.23736432 74.28657913 -118.8125 77.4375 C-123.77421156 80.25474301 -128.575131 83.26088999 -133.3671875 86.35546875 C-136.84944313 88.53058688 -140.43652557 90.46831711 -144.0546875 92.40625 C-151.77300878 96.58274215 -159.3487122 101.03110708 -166.9375 105.4375 C-167.8965625 105.99308594 -168.855625 106.54867187 -169.84375 107.12109375 C-172.22505947 108.5386802 -174.56866329 109.98608299 -176.90625 111.47265625 C-177.575354 111.89168213 -178.24445801 112.31070801 -178.93383789 112.74243164 C-180.24286414 113.56402226 -181.54457804 114.39741265 -182.83764648 115.24389648 C-185.63001929 116.98438662 -187.42992559 118.03301278 -190.765625 117.83984375 C-193.43528416 116.83638795 -195.67809102 115.65850641 -198 114 C-198 113.34 -198 112.68 -198 112 C-196.20947266 110.72583008 -196.20947266 110.72583008 -193.6640625 109.26953125 C-192.71547363 108.72176025 -191.76688477 108.17398926 -190.78955078 107.60961914 C-189.74524902 107.01656982 -188.70094727 106.42352051 -187.625 105.8125 C-186.54589355 105.19173584 -185.46678711 104.57097168 -184.35498047 103.93139648 C-182.06255916 102.61329555 -179.76885553 101.29779972 -177.47265625 99.98632812 C-174.15303107 98.08946559 -170.84123292 96.17927202 -167.53125 94.265625 C-159.27210477 89.49077714 -151.00859733 84.72356522 -142.7322998 79.97850037 C-140.97519518 78.97078041 -139.21870476 77.9619982 -137.46240234 76.95288086 C-135.27254945 75.6950442 -133.08155559 74.4391908 -130.88916016 73.18579102 C-125.99656119 70.37346952 -121.17419841 67.49996251 -116.43359375 64.4375 C-111.99691868 61.5825131 -107.46706225 59.01398738 -102.81787109 56.5234375 C-97.75653841 53.78710793 -92.79116036 50.88318266 -87.8125 48 C-86.11963867 47.02160156 -86.11963867 47.02160156 -84.39257812 46.0234375 C-75.9317097 41.13104726 -67.48834013 36.20876381 -59.05102539 31.27587891 C-53.85067629 28.237751 -48.64270357 25.21375699 -43.421875 22.2109375 C-42.31924316 21.57671875 -41.21661133 20.9425 -40.08056641 20.2890625 C-37.88049566 19.0246911 -35.67966291 17.76164462 -33.47802734 16.5 C-28.29255568 13.51845208 -23.14273408 10.49693132 -18.0546875 7.3515625 C-17.13461914 6.78518066 -16.21455078 6.21879883 -15.26660156 5.63525391 C-13.55072763 4.57306134 -11.84129382 3.50036806 -10.13964844 2.41552734 C-9.0070459 1.71484131 -9.0070459 1.71484131 -7.8515625 1 C-7.20010254 0.5875 -6.54864258 0.175 -5.87744141 -0.25 C-3.46410119 -1.21408077 -2.40114099 -0.92245874 0 0 Z " fill="#FDD892" transform="translate(338,104)"/>
<path d="M0 0 C2.17711533 1.07350848 3.91226295 2.18024863 5.6953125 3.8359375 C5.6953125 4.8259375 5.6953125 5.8159375 5.6953125 6.8359375 C5.02701416 7.2076709 4.35871582 7.5794043 3.67016602 7.96240234 C-20.86359494 21.58954486 -20.86359494 21.58954486 -44.77734375 36.26171875 C-48.23178236 38.41340153 -51.79308162 40.3316608 -55.37890625 42.25390625 C-64.72138315 47.30557934 -73.85675319 52.73556787 -83.00219727 58.1328125 C-87.2724242 60.64995852 -91.55811949 63.13558048 -95.8671875 65.5859375 C-109.89430069 73.57359918 -123.87486397 81.64678617 -137.578125 90.1796875 C-141.13740634 92.34177244 -144.7806848 94.31980618 -148.44921875 96.2890625 C-157.24541056 101.05416778 -165.86630354 106.14596242 -174.4921875 111.2109375 C-175.22324707 111.63987305 -175.95430664 112.06880859 -176.70751953 112.51074219 C-177.39313965 112.91454102 -178.07875977 113.31833984 -178.78515625 113.734375 C-179.39254639 114.09192871 -179.99993652 114.44948242 -180.62573242 114.81787109 C-182.21272985 115.78017723 -183.760434 116.80643516 -185.3046875 117.8359375 C-189.96979447 118.34301434 -192.49175316 117.52742056 -196.3046875 114.8359375 C-194.96777469 110.82519907 -193.43136288 110.52562534 -189.7421875 108.5234375 C-188.45351849 107.81153807 -187.16583224 107.09785802 -185.87890625 106.3828125 C-185.15493652 105.98255859 -184.4309668 105.58230469 -183.68505859 105.16992188 C-179.10412136 102.60271767 -174.5848368 99.92887725 -170.0546875 97.2734375 C-156.03782758 89.08120706 -141.97036124 80.97738269 -127.90087891 72.87597656 C-114.66684079 65.25483313 -101.44993475 57.6092971 -88.3046875 49.8359375 C-72.89536133 40.72372902 -57.38410851 31.79096381 -41.87011719 22.85839844 C-39.60400848 21.55339442 -37.33813674 20.24797884 -35.07250977 18.94213867 C-32.87336092 17.67514133 -30.67334436 16.40964876 -28.47241211 15.14575195 C-23.62844759 12.35869627 -18.804046 9.55068491 -14.03515625 6.63671875 C-13.24761963 6.15887939 -12.46008301 5.68104004 -11.64868164 5.1887207 C-10.21804684 4.31655133 -8.79349775 3.43428078 -7.37670898 2.53979492 C-2.86520658 -0.20396386 -2.86520658 -0.20396386 0 0 Z " fill="#F78DA6" transform="translate(265.3046875,62.1640625)"/>
<path d="M0 0 C2.37637213 1.28353433 4.11601252 2.53915939 5.96875 4.4921875 C5.96875 5.1521875 5.96875 5.8121875 5.96875 6.4921875 C4.43734375 7.33136719 4.43734375 7.33136719 2.875 8.1875 C-13.74782489 17.33792858 -30.19630228 26.80538628 -46.3046875 36.8359375 C-49.86396884 38.99802244 -53.5072473 40.97605618 -57.17578125 42.9453125 C-66.18969996 47.82836559 -75.01406524 53.05604249 -83.83886719 58.27050781 C-91.98462832 63.07348454 -100.18549888 67.78134297 -108.38574219 72.49047852 C-109.46243164 73.10979248 -110.53912109 73.72910645 -111.6484375 74.3671875 C-112.61378418 74.92148438 -113.57913086 75.47578125 -114.57373047 76.046875 C-116.42814593 77.13749089 -118.24121997 78.29883415 -120.03125 79.4921875 C-125.37622677 80.08607381 -126.8151897 79.10021765 -132.03125 76.4921875 C-132.03125 124.3421875 -132.03125 172.1921875 -132.03125 221.4921875 C-132.36125 221.4921875 -132.69125 221.4921875 -133.03125 221.4921875 C-133.33518531 202.59479771 -133.56429572 183.69790496 -133.70480824 164.79857635 C-133.77179143 156.02276319 -133.86307279 147.24847008 -134.01196289 138.47363281 C-134.14170459 130.82364713 -134.22544353 123.17476221 -134.25440043 115.52370691 C-134.27132505 111.47329557 -134.31096114 107.4260325 -134.40574074 103.37663269 C-134.49433317 99.56047647 -134.52114253 95.74874659 -134.50164986 91.9316597 C-134.50521211 90.53507483 -134.53089454 89.13833458 -134.58092117 87.74264145 C-134.73019916 83.36116313 -134.61214064 79.60358638 -133.03125 75.4921875 C-129.05920101 71.86937347 -124.90068923 69.78483488 -120.03125 67.4921875 C-117.98327034 66.31975637 -115.94375896 65.13224249 -113.91796875 63.921875 C-111.85255725 62.73524605 -109.78612119 61.55039893 -107.71875 60.3671875 C-105.43331902 59.05386338 -103.148169 57.74005023 -100.86328125 56.42578125 C-99.15132568 55.44134033 -99.15132568 55.44134033 -97.40478516 54.43701172 C-92.22803867 51.45264622 -87.06599241 48.44333106 -81.90625 45.4296875 C-80.92342041 44.85581299 -79.94059082 44.28193848 -78.92797852 43.69067383 C-75.96209772 41.95836578 -72.99660159 40.22540125 -70.03125 38.4921875 C-49.06845712 26.23967721 -49.06845712 26.23967721 -39.33984375 20.62890625 C-38.22327393 19.9846167 -37.1067041 19.34032715 -35.95629883 18.67651367 C-33.73637741 17.3994907 -31.51360396 16.12741123 -29.2878418 14.8605957 C-24.41178944 12.07644714 -19.60428027 9.26110939 -14.9296875 6.1484375 C-4.44626409 -0.74486383 -4.44626409 -0.74486383 0 0 Z " fill="#FCDB98" transform="translate(312.03125,165.5078125)"/>
<path d="M0 0 C1.31823302 0.59155331 2.62947051 1.19871463 3.9375 1.8125 C4.66839844 2.14894531 5.39929688 2.48539063 6.15234375 2.83203125 C8 4 8 4 9 7 C6.35921766 8.52352827 3.71843269 10.047052 1.07763672 11.57055664 C-1.25671642 12.91732423 -3.59103235 14.26415607 -5.92529297 15.61108398 C-11.83978489 19.02377298 -17.75488441 22.43539406 -23.671875 25.84375 C-50.52155983 41.12724 -50.52155983 41.12724 -76.92578125 57.15625 C-79.611816 58.76718825 -82.32047956 60.27510981 -85.07421875 61.765625 C-91.29141969 65.13382235 -97.3987469 68.67705774 -103.5 72.25 C-104.56992187 72.87390625 -105.63984375 73.4978125 -106.7421875 74.140625 C-112.43978103 77.45961039 -112.43978103 77.45961039 -118 81 C-122.06127728 80.70990877 -125.59035329 78.032674 -129 76 C-125.97777107 73.63216443 -122.85104129 71.68254145 -119.51953125 69.77734375 C-118.44687012 69.16173584 -117.37420898 68.54612793 -116.26904297 67.91186523 C-115.12838379 67.26032471 -113.98772461 66.60878418 -112.8125 65.9375 C-110.43546389 64.57419387 -108.05954715 63.20894196 -105.68359375 61.84375 C-105.0989032 61.50810532 -104.51421265 61.17246063 -103.9118042 60.8266449 C-99.38266481 58.22514243 -94.87185754 55.59432376 -90.375 52.9375 C-75.33955684 44.06369853 -60.24881748 35.28475587 -45.125 26.5625 C-44.05999268 25.94826172 -42.99498535 25.33402344 -41.89770508 24.70117188 C-36.80194838 21.76371261 -31.70442903 18.82936608 -26.60336304 15.90113831 C-24.22402828 14.53493486 -21.84557718 13.16719744 -19.46722412 11.79928589 C-17.7955961 10.83870135 -16.12266921 9.88037822 -14.44970703 8.92211914 C-9.52417226 6.08890547 -4.66752061 3.24312208 0 0 Z " fill="#7DB2FE" transform="translate(380,206)"/>
<path d="M0 0 C1.50539661 0.94983358 3.00420347 1.91011891 4.5 2.875 C5.3353125 3.40867187 6.170625 3.94234375 7.03125 4.4921875 C8.00578125 5.23855469 8.00578125 5.23855469 9 6 C9 6.66 9 7.32 9 8 C8.40719238 8.28625244 7.81438477 8.57250488 7.20361328 8.86743164 C0.584806 12.11370085 -5.77905152 15.6899259 -12.125 19.4375 C-14.25255474 20.68628213 -16.38016034 21.93497761 -18.5078125 23.18359375 C-19.58579102 23.81765137 -20.66376953 24.45170898 -21.77441406 25.10498047 C-26.84238029 28.08239145 -31.92144022 31.04070768 -37 34 C-39.00267516 35.16784702 -41.00527919 36.33581602 -43.0078125 37.50390625 C-43.99813477 38.08156738 -44.98845703 38.65922852 -46.00878906 39.25439453 C-48.98306294 40.9901159 -51.95648422 42.72728925 -54.9296875 44.46484375 C-63.13762275 49.25977863 -71.34585478 54.05340869 -79.5859375 58.79296875 C-81.23795166 59.74357178 -81.23795166 59.74357178 -82.92333984 60.71337891 C-85.12276465 61.97724917 -87.32358995 63.23868572 -89.52587891 64.49755859 C-94.70416533 67.46901509 -99.82998016 70.49029444 -104.875 73.68359375 C-105.78604492 74.2544873 -106.69708984 74.82538086 -107.63574219 75.41357422 C-109.32994901 76.48218394 -111.01375661 77.56753521 -112.68457031 78.67236328 C-118.16282225 82.11425252 -118.16282225 82.11425252 -122.234375 81.55859375 C-125.09897518 79.94422161 -127.53589611 78.17420931 -130 76 C-129.14341797 75.51926025 -129.14341797 75.51926025 -128.26953125 75.02880859 C-116.19801077 68.24697465 -104.17652522 61.3884962 -92.22802734 54.39208984 C-83.47687727 49.26936138 -74.69549757 44.20038741 -65.90307617 39.14892578 C-60.40190874 35.98336923 -54.93268023 32.77413493 -49.49755859 29.49658203 C-44.94087884 26.76613756 -40.34254165 24.10701693 -35.75 21.4375 C-27.34260818 16.54039394 -18.94394836 11.62889475 -10.5625 6.6875 C-9.61536133 6.13054443 -8.66822266 5.57358887 -7.69238281 4.99975586 C-6.82581055 4.48807861 -5.95923828 3.97640137 -5.06640625 3.44921875 C-3.9208728 2.77379028 -3.9208728 2.77379028 -2.75219727 2.0847168 C-1.04245678 1.11880012 -1.04245678 1.11880012 0 0 Z " fill="#FD92AB" transform="translate(238,123)"/>
<path d="M0 0 C2.875 1.5 2.875 1.5 5 3 C3.54125245 6.79274363 1.83326985 7.94776369 -1.75 9.75 C-3.22533203 10.51763672 -3.22533203 10.51763672 -4.73046875 11.30078125 C-5.80941406 11.86152344 -6.88835937 12.42226562 -8 13 C-10.36309621 14.29930598 -12.71763982 15.60629668 -15.0625 16.9375 C-15.65514648 17.27386475 -16.24779297 17.61022949 -16.85839844 17.95678711 C-21.39250808 20.56833923 -25.63822788 23.47787449 -29.88671875 26.5234375 C-34.07518905 29.44994725 -37.79558689 31.88855834 -43 31 C-45.45889267 29.81170668 -47.67873734 28.45647853 -50 27 C-45.78218694 23.37754425 -41.25509755 20.72067093 -36.4375 18 C-31.07671321 14.9523683 -25.75146303 11.87215193 -20.515625 8.61328125 C-19.62431885 8.06220703 -18.7330127 7.51113281 -17.81469727 6.94335938 C-16.09501075 5.87584651 -14.38163865 4.79807709 -12.67553711 3.70898438 C-8.34370136 1.03504457 -5.26568156 -0.86050868 0 0 Z " fill="#F9D891" transform="translate(379,104)"/>
<path d="M0 0 C2.8125 1.5625 2.8125 1.5625 5 3 C3.70031836 6.89904491 2.35373577 7.19006982 -1.21484375 9.109375 C-2.29443359 9.69976562 -3.37402344 10.29015625 -4.48632812 10.8984375 C-6.1946582 11.81496094 -6.1946582 11.81496094 -7.9375 12.75 C-15.15532717 16.64332884 -22.13788934 20.57755589 -28.77734375 25.40625 C-36.66440761 31.06164904 -36.66440761 31.06164904 -41 32 C-44.47845786 30.93010286 -47.15023553 29.23713395 -50 27 C-47.72985978 24.53340534 -45.38341515 22.88665536 -42.5 21.1875 C-41.59894531 20.65640625 -40.69789063 20.1253125 -39.76953125 19.578125 C-37.26384695 18.15034438 -34.73592851 16.78690712 -32.1875 15.4375 C-28.27367162 13.35387914 -24.54085067 11.09104948 -20.80859375 8.6953125 C-19.87571533 8.10049072 -18.94283691 7.50566895 -17.98168945 6.89282227 C-16.09581617 5.68451597 -14.2178021 4.46384351 -12.34838867 3.23022461 C-11.47287354 2.67085205 -10.5973584 2.11147949 -9.6953125 1.53515625 C-8.91172363 1.023479 -8.12813477 0.51180176 -7.32080078 -0.01538086 C-4.40837857 -1.25100034 -2.97969024 -0.94569591 0 0 Z " fill="#F88EA7" transform="translate(308,63)"/>
<path d="M0 0 C1.91015625 0.70703125 1.91015625 0.70703125 4.0625 1.8125 C5.13177734 2.34810547 5.13177734 2.34810547 6.22265625 2.89453125 C8 4 8 4 9 6 C5.14613806 8.25052225 1.29185589 10.50032384 -2.5625 12.75 C-3.64853516 13.38421875 -4.73457031 14.0184375 -5.85351562 14.671875 C-6.91376953 15.290625 -7.97402344 15.909375 -9.06640625 16.546875 C-10.09266113 17.14693359 -11.11891602 17.74699219 -12.17626953 18.36523438 C-14.50822199 19.71529089 -16.8550409 21.02791162 -19.21484375 22.328125 C-22.07740593 23.70756062 -22.07740593 23.70756062 -23 26 C-24.75726685 27.07897329 -26.55611348 28.090995 -28.375 29.0625 C-29.35210937 29.58972656 -30.32921875 30.11695313 -31.3359375 30.66015625 C-34 32 -34 32 -37 33 C-39.26171875 32.00390625 -39.26171875 32.00390625 -41.6875 30.5625 C-42.49574219 30.08941406 -43.30398438 29.61632812 -44.13671875 29.12890625 C-44.75160156 28.75636719 -45.36648438 28.38382813 -46 28 C-43.67281733 25.45369948 -41.22076483 23.8015968 -38.25 22.0625 C-37.43015625 21.57910156 -36.6103125 21.09570312 -35.765625 20.59765625 C-33.82777681 19.4781931 -31.88602392 18.36547467 -29.94140625 17.2578125 C-23.38400604 13.51722318 -16.88145725 9.68080539 -10.36523438 5.86914062 C-9.32044922 5.25876953 -8.27566406 4.64839844 -7.19921875 4.01953125 C-6.24877686 3.46370361 -5.29833496 2.90787598 -4.3190918 2.33520508 C-2.90072257 1.51858635 -1.46386814 0.73193407 0 0 Z " fill="#79ADF9" transform="translate(447,144)"/>
<path d="M0 0 C0.86499852 3.60785706 0.99355416 6.4060095 0 10 C-2.41552734 11.99487305 -2.41552734 11.99487305 -5.6484375 13.82421875 C-6.22799698 14.15930954 -6.80755646 14.49440033 -7.40467834 14.83964539 C-8.63615647 15.54904545 -9.87243432 16.25016866 -11.11300659 16.94354248 C-12.95291647 17.97363968 -14.77698576 19.02707732 -16.59790039 20.09033203 C-19.59337921 21.83609798 -22.60054385 23.56016082 -25.61401367 25.2746582 C-27.46244209 26.32669585 -29.30847113 27.38285691 -31.15429688 28.43945312 C-36.37919931 31.42122931 -41.5969814 34.34828927 -47 37 C-47.55626415 33.52506594 -47.73721927 30.4576622 -47 27 C-44.44839332 24.17720807 -41.33857646 22.7507277 -38 21 C-29.08012396 16.22018479 -20.32293822 11.17245273 -11.57958984 6.07910156 C-9.85359548 5.07435491 -8.12604405 4.07228454 -6.3984375 3.0703125 C-5.38442871 2.48008301 -4.37041992 1.88985352 -3.32568359 1.28173828 C-1 0 -1 0 0 0 Z " fill="#DCE3F0" transform="translate(441,305)"/>
<path d="M0 0 C0.88318007 3.26097256 0.99936202 5.75079222 0 9 C-3.10106458 11.89922014 -6.79542236 13.70655197 -10.52783203 15.66699219 C-13.51548224 17.27795112 -16.44081475 18.98222632 -19.37109375 20.6953125 C-38.75685959 32.0240151 -38.75685959 32.0240151 -47 36 C-48.12869738 32.31605715 -48.30055673 29.65750435 -47 26 C-42.51758079 21.62913066 -36.49106914 18.88779714 -31 16 C-29.55753906 15.20335937 -29.55753906 15.20335937 -28.0859375 14.390625 C-26.40009477 13.46158473 -24.70591717 12.54751502 -23.00390625 11.6484375 C-20.51745687 10.28396203 -18.08451809 8.87138506 -15.65234375 7.4140625 C-14.885271 6.95515625 -14.11819824 6.49625 -13.32788086 6.0234375 C-11.79805667 5.10441989 -10.27140985 4.1800884 -8.74829102 3.25 C-8.04760498 2.82976562 -7.34691895 2.40953125 -6.625 1.9765625 C-5.99851562 1.59580566 -5.37203125 1.21504883 -4.7265625 0.82275391 C-3 0 -3 0 0 0 Z " fill="#DDE3F0" transform="translate(441,287)"/>
<path d="M0 0 C0.56702805 3.15015585 0.7003103 5.86157235 0 9 C-2.44942462 11.82625917 -5.72154675 13.27881205 -9 15 C-10.3145245 15.73074499 -11.62686584 16.4654252 -12.9375 17.203125 C-15.96642461 18.90325742 -19.00520152 20.58381035 -22.05078125 22.25390625 C-28.11745587 25.59721519 -34.09596003 29.09064397 -40.06982422 32.59643555 C-40.83182129 33.04156494 -41.59381836 33.48669434 -42.37890625 33.9453125 C-43.39319702 34.54110107 -43.39319702 34.54110107 -44.42797852 35.14892578 C-46 36 -46 36 -47 36 C-47.68462021 32.47517891 -47.87373292 29.50395254 -47 26 C-43.89458016 22.86783643 -40.16379158 21.09506308 -36.25 19.125 C-34.0523727 17.93937522 -31.85577487 16.75184046 -29.66015625 15.5625 C-28.54785645 14.9746875 -27.43555664 14.386875 -26.28955078 13.78125 C-20.43615342 10.61170962 -14.81244436 7.06526576 -9.15917969 3.55517578 C-8.38864258 3.0857959 -7.61810547 2.61641602 -6.82421875 2.1328125 C-6.15479248 1.71918457 -5.48536621 1.30555664 -4.7956543 0.87939453 C-3 0 -3 0 0 0 Z " fill="#DDE3F0" transform="translate(441,268)"/>
<path d="M0 0 C3.48539917 0.64544429 6.02819057 2.10134397 9 4 C8.42716068 8.73729027 6.30393911 12.38942448 3.9375 16.4375 C3.34110718 17.47680664 3.34110718 17.47680664 2.73266602 18.53710938 C1.90667107 19.97544321 1.07778132 21.41211827 0.24609375 22.84716797 C-1.34610309 25.59795005 -2.91901164 28.35951046 -4.49194336 31.12133789 C-5.99000978 33.75021385 -7.4948324 36.37518457 -9 39 C-12.95008059 38.31620454 -15.63457018 37.21156817 -19 35 C-17.71350097 30.76030315 -16.10023316 27.15061866 -13.84765625 23.33984375 C-13.23599609 22.29892578 -12.62433594 21.25800781 -11.99414062 20.18554688 C-11.35669922 19.11369141 -10.71925781 18.04183594 -10.0625 16.9375 C-9.11213867 15.32391602 -9.11213867 15.32391602 -8.14257812 13.67773438 C-5.44765197 9.1068449 -2.73304105 4.54819674 0 0 Z " fill="#3F58D1" transform="translate(400,172)"/>
<path d="M0 0 C3.48539917 0.64544429 6.02819057 2.10134397 9 4 C7.46020457 9.37217518 4.99232432 13.92385338 2.25 18.75 C1.80188965 19.5433374 1.3537793 20.3366748 0.89208984 21.15405273 C0.00263684 22.72447814 -0.88938007 24.29345468 -1.78417969 25.86083984 C-2.8217938 27.68645728 -3.8388499 29.52373368 -4.8515625 31.36328125 C-5.35429687 32.25402344 -5.85703125 33.14476562 -6.375 34.0625 C-6.79523438 34.81660156 -7.21546875 35.57070312 -7.6484375 36.34765625 C-9 38 -9 38 -10.9609375 38.8671875 C-14.35900697 39.0885177 -16.38076762 36.96442429 -19 35 C-18.40936018 30.91184595 -17.07449833 28.01814972 -14.98046875 24.47265625 C-14.37009766 23.43302734 -13.75972656 22.39339844 -13.13085938 21.32226562 C-12.48955078 20.24654297 -11.84824219 19.17082031 -11.1875 18.0625 C-10.55779297 16.99064453 -9.92808594 15.91878906 -9.27929688 14.81445312 C-6.31153787 9.78514484 -3.31838574 4.8062262 0 0 Z " fill="#EFA347" transform="translate(329,131)"/>
<path d="M0 0 C3.95820859 0.56545837 6.6659053 1.80902348 10 4 C5.33726811 16.22332987 -2.2431294 27.82919846 -9 39 C-12.82097239 38.46930939 -15.06171403 37.50298434 -18 35 C-17.4010418 30.85554987 -16.00771683 27.84820331 -13.9453125 24.21875 C-13.33042969 23.12949219 -12.71554688 22.04023437 -12.08203125 20.91796875 C-11.43621094 19.79003906 -10.79039062 18.66210938 -10.125 17.5 C-9.48691406 16.37207031 -8.84882813 15.24414062 -8.19140625 14.08203125 C-5.51223789 9.35573216 -2.81009486 4.64987362 0 0 Z " fill="#D43B51" transform="translate(257,90)"/>
<path d="M0 0 C0 0.66 0 1.32 0 2 C-1.95224208 3.28406399 -3.96340762 4.47941678 -6 5.625 C-7.11375 6.25664063 -8.2275 6.88828125 -9.375 7.5390625 C-10.24125 8.02117187 -11.1075 8.50328125 -12 9 C-12.66 8.01 -13.32 7.02 -14 6 C-12.2335343 4.9923048 -10.46166177 3.99408286 -8.6875 3 C-7.20830078 2.1646875 -7.20830078 2.1646875 -5.69921875 1.3125 C-3 0 -3 0 0 0 Z " fill="#FDE8EC" transform="translate(271,80)"/>
<path d="M0 0 C-1 3 -1 3 -3.28515625 4.38671875 C-4.20167969 4.81597656 -5.11820312 5.24523437 -6.0625 5.6875 C-6.98160156 6.12449219 -7.90070313 6.56148437 -8.84765625 7.01171875 C-9.55792969 7.33785156 -10.26820313 7.66398438 -11 8 C-11.66 7.34 -12.32 6.68 -13 6 C-11.40089132 4.99193149 -9.79551738 3.99379615 -8.1875 3 C-7.29417969 2.443125 -6.40085937 1.88625 -5.48046875 1.3125 C-3 0 -3 0 0 0 Z " fill="#E6EFFE" transform="translate(414,162)"/>
<path d="M0 0 C0.55171875 0.22558594 1.1034375 0.45117188 1.671875 0.68359375 C-2.14047423 4.03384005 -5.66098211 5.85334164 -10.328125 7.68359375 C-10.988125 7.02359375 -11.648125 6.36359375 -12.328125 5.68359375 C-10.75465324 4.64762475 -9.16890954 3.63027643 -7.578125 2.62109375 C-6.69640625 2.05261719 -5.8146875 1.48414062 -4.90625 0.8984375 C-2.328125 -0.31640625 -2.328125 -0.31640625 0 0 Z " fill="#FEF7EC" transform="translate(341.328125,121.31640625)"/>
</svg>
